<?xml version="1.0" encoding="UTF-8"?>
<svg id="Capa_1" xmlns="http://www.w3.org/2000/svg" version="1.1" viewBox="0 0 53 53">
  <!-- Generator: Adobe Illustrator 29.6.0, SVG Export Plug-In . SVG Version: 2.1.1 Build 207)  -->
  <defs>
    <style>
      .st0 {
        fill-rule: evenodd;
      }

      .st0, .st1 {
        fill: #004171;
      }
    </style>
  </defs>
  <rect class="st1" x="31.5" y="17.13" width="8.17" height="1.98"/>
  <path class="st1" d="M42.87,29.13c0-4.31-2.53-7.91-7.1-7.91s-7.45,3.33-7.45,7.72,2.86,7.66,7.45,7.66c3.49,0,5.74-1.56,6.83-4.91h-3.53c-.39,1.25-1.95,1.9-3.17,1.9-2.35,0-3.58-1.38-3.58-3.7h10.51c0-.25.04-.51.04-.76ZM32.31,27.36c.13-1.92,1.41-3.12,3.33-3.12s3.02,1.18,3.2,3.12h-6.53Z"/>
  <path class="st1" d="M23.32,25.27c1.81-.86,2.75-1.86,2.75-3.88,0-4.01-2.99-4.99-6.44-4.99h-9.5v20.15h9.77c3.66-.02,7.09-1.77,7.09-5.87,0-2.53-1.19-4.71-3.67-5.41ZM14.57,19.51h4.16c1.59,0,3.03.44,3.03,2.3,0,1.71-1.13,2.4-2.71,2.4h-4.48v-4.7ZM19.29,33.11h-4.73v-5.55h4.83c1.95.01,3.18.82,3.18,2.88s-1.47,2.67-3.28,2.67Z"/>
  <path class="st0" d="M52.84,15.57c-.13-2.82-.58-4.75-1.23-6.43-.67-1.74-1.58-3.22-3.06-4.69s-2.94-2.38-4.69-3.06c-1.68-.66-3.62-1.1-6.43-1.23-2.83-.13-3.73-.16-10.93-.16s-8.1.03-10.93.16c-2.82.13-4.75.58-6.43,1.23-1.74.67-3.22,1.58-4.69,3.06s-2.38,2.94-3.06,4.69c-.66,1.68-1.1,3.62-1.23,6.43-.13,2.83-.16,3.73-.16,10.93s.03,8.1.16,10.93c.13,2.82.58,4.75,1.23,6.43.67,1.74,1.58,3.22,3.06,4.69,1.47,1.47,2.94,2.38,4.69,3.06,1.68.66,3.62,1.1,6.43,1.23,2.83.13,3.73.16,10.93.16s8.1-.03,10.93-.16c2.82-.13,4.75-.58,6.43-1.23,1.74-.67,3.22-1.58,4.69-3.06,1.47-1.47,2.38-2.94,3.06-4.69.66-1.68,1.1-3.62,1.23-6.43.13-2.83.16-3.73.16-10.93s-.03-8.1-.16-10.93ZM48.07,37.21c-.11,2.59-.54,3.98-.91,4.93-.48,1.23-1.06,2.11-1.98,3.04s-1.81,1.5-3.04,1.98c-.94.37-2.34.8-4.93.91-2.78.13-3.63.16-10.71.16s-7.92-.03-10.71-.16c-2.59-.11-3.98-.54-4.93-.91-1.23-.48-2.11-1.06-3.04-1.98s-1.5-1.81-1.98-3.04c-.37-.94-.8-2.34-.91-4.93-.13-2.78-.16-3.63-.16-10.71s.03-7.92.16-10.71c.11-2.59.54-3.98.91-4.93.48-1.23,1.06-2.11,1.98-3.04s1.81-1.5,3.04-1.98c.94-.37,2.34-.8,4.93-.91,2.78-.13,3.63-.16,10.71-.16s7.92.03,10.71.16c2.59.11,3.98.54,4.93.91,1.23.48,2.11,1.06,3.04,1.98s1.5,1.81,1.98,3.04c.37.94.8,2.34.91,4.93.13,2.78.16,3.63.16,10.71s-.03,7.92-.16,10.71Z"/>
</svg>