<?xml version="1.0" encoding="UTF-8"?>
<svg id="Capa_1" xmlns="http://www.w3.org/2000/svg" version="1.1" viewBox="0 0 53 53">
  <!-- Generator: Adobe Illustrator 29.6.0, SVG Export Plug-In . SVG Version: 2.1.1 Build 207)  -->
  <defs>
    <style>
      .st0 {
        fill: #004171;
        fill-rule: evenodd;
      }
    </style>
  </defs>
  <path class="st0" d="M52.84,15.57c-.13-2.82-.58-4.75-1.23-6.43-.67-1.74-1.58-3.22-3.06-4.69s-2.94-2.38-4.69-3.06c-1.68-.66-3.62-1.1-6.43-1.23-2.83-.13-3.73-.16-10.93-.16s-8.1.03-10.93.16c-2.82.13-4.75.58-6.43,1.23-1.74.67-3.22,1.58-4.69,3.06s-2.38,2.94-3.06,4.69c-.66,1.68-1.1,3.62-1.23,6.43C.03,18.4,0,19.3,0,26.5s.03,8.1.16,10.93c.13,2.82.58,4.75,1.23,6.43.67,1.74,1.58,3.22,3.06,4.69,1.47,1.47,2.94,2.38,4.69,3.06,1.68.66,3.62,1.1,6.43,1.23,2.83.13,3.73.16,10.93.16s8.1-.03,10.93-.16c2.82-.13,4.75-.58,6.43-1.23,1.74-.67,3.22-1.58,4.69-3.06,1.47-1.47,2.38-2.94,3.06-4.69.66-1.68,1.1-3.62,1.23-6.43.13-2.83.16-3.73.16-10.93s-.03-8.1-.16-10.93ZM48.07,37.21c-.11,2.59-.54,3.98-.91,4.93-.48,1.23-1.06,2.11-1.98,3.04s-1.81,1.5-3.04,1.98c-.94.37-2.34.8-4.93.91-2.78.13-3.63.16-10.71.16s-7.92-.03-10.71-.16c-2.59-.11-3.98-.54-4.93-.91-1.23-.48-2.11-1.06-3.04-1.98s-1.5-1.81-1.98-3.04c-.37-.94-.8-2.34-.91-4.93-.13-2.78-.16-3.63-.16-10.71s.03-7.92.16-10.71c.11-2.59.54-3.98.91-4.93.48-1.23,1.06-2.11,1.98-3.04s1.81-1.5,3.04-1.98c.94-.37,2.34-.8,4.93-.91,2.78-.13,3.63-.16,10.71-.16s7.92.03,10.71.16c2.59.11,3.98.54,4.93.91,1.23.48,2.11,1.06,3.04,1.98s1.5,1.81,1.98,3.04c.37.94.8,2.34.91,4.93.13,2.78.16,3.63.16,10.71s-.03,7.92-.16,10.71Z"/>
  <path class="st0" d="M43.83,12.35c0,1.76-1.42,3.18-3.18,3.18s-3.18-1.42-3.18-3.18,1.42-3.18,3.18-3.18,3.18,1.42,3.18,3.18Z"/>
  <path class="st0" d="M26.5,12.9c-7.52,0-13.62,6.08-13.62,13.6s6.1,13.62,13.62,13.62,13.62-6.1,13.62-13.62-6.1-13.6-13.62-13.6ZM26.5,35.33c-4.88,0-8.83-3.95-8.83-8.83s3.95-8.83,8.83-8.83,8.83,3.95,8.83,8.83-3.95,8.83-8.83,8.83Z"/>
</svg>