<?xml version="1.0" encoding="UTF-8"?>
<svg id="OBJECTS" xmlns="http://www.w3.org/2000/svg" version="1.1" xmlns:xlink="http://www.w3.org/1999/xlink" viewBox="0 0 1920 1080">
  <!-- Generator: Adobe Illustrator 29.5.0, SVG Export Plug-In . SVG Version: 2.1.0 Build 137)  -->
  <defs>
    <style>
      .st0 {
        fill: #000001;
      }

      .st1 {
        fill: #510203;
      }

      .st2 {
        fill: #d02a2a;
      }

      .st3 {
        fill: #4c0202;
      }

      .st4 {
        fill: none;
      }

      .st5 {
        fill: #a00d0b;
      }

      .st6 {
        clip-path: url(#clippath);
      }

      .st7 {
        fill: #c82524;
      }
    </style>
    <clipPath id="clippath">
      <rect class="st4" y="0" width="1920" height="1080"/>
    </clipPath>
  </defs>
  <g class="st6">
    <g>
      <g>
        <g>
          <polygon class="st0" points="-2.21 -70.47 -104.25 -70.47 -2.21 78.66 48.81 4.09 -2.21 -70.47"/>
          <g>
            <polygon class="st5" points="-2.21 78.66 48.81 153.22 150.86 153.22 48.81 4.09 -2.21 78.66"/>
            <polygon class="st3" points="150.86 -1.18 43.89 -.06 150.86 153.22 201.88 78.66 150.86 -1.18"/>
          </g>
          <g>
            <polygon class="st5" points="146.84 -1.78 201.88 78.66 303.92 78.66 201.88 -70.47 146.84 -1.78"/>
            <polygon class="st3" points="303.92 -70.47 201.88 -70.47 303.92 78.66 354.95 4.09 303.92 -70.47"/>
          </g>
          <polygon class="st2" points="303.92 78.66 354.95 153.22 456.99 153.22 354.95 4.09 303.92 78.66"/>
          <polygon class="st2" points="456.99 4.09 508.01 78.66 610.06 78.66 508.01 -70.47 456.99 4.09"/>
        </g>
        <g>
          <polygon class="st2" points="-2.21 78.66 -104.25 78.66 -2.21 227.79 48.81 153.22 -2.21 78.66"/>
          <g>
            <polygon class="st3" points="-2.21 227.79 48.81 302.35 150.86 302.35 48.81 153.22 -2.21 227.79"/>
            <polygon class="st3" points="150.86 153.22 48.81 153.22 150.86 302.35 201.88 227.79 150.86 153.22"/>
          </g>
          <g>
            <polygon class="st2" points="150.86 153.22 201.88 227.79 303.92 227.79 201.88 78.66 150.86 153.22"/>
            <polygon class="st3" points="303.92 78.66 201.88 78.66 303.92 227.79 354.95 153.22 303.92 78.66"/>
          </g>
          <polygon class="st7" points="303.92 227.79 354.95 302.35 456.99 302.35 354.95 153.22 303.92 227.79"/>
        </g>
        <g>
          <polygon class="st7" points="-2.21 227.79 -104.25 227.79 -2.21 376.92 48.81 302.35 -2.21 227.79"/>
          <g>
            <polygon class="st7" points="-2.21 376.92 48.81 451.48 150.86 451.48 48.81 302.35 -2.21 376.92"/>
            <polygon class="st5" points="150.86 302.35 48.81 302.35 150.86 451.48 201.88 376.92 150.86 302.35"/>
          </g>
          <g>
            <polygon class="st5" points="150.86 302.35 201.88 376.92 303.92 376.92 201.88 227.79 150.86 302.35"/>
            <polygon class="st5" points="303.92 227.79 201.88 227.79 303.92 376.92 354.95 302.35 303.92 227.79"/>
          </g>
        </g>
        <g>
          <polygon class="st3" points="-2.21 376.92 -104.25 376.92 -2.21 526.05 48.81 451.48 -2.21 376.92"/>
          <g>
            <polygon class="st2" points="-2.21 526.05 48.81 600.61 150.86 600.61 48.81 451.48 -2.21 526.05"/>
            <polygon class="st3" points="150.86 451.48 48.81 451.48 150.86 600.61 201.88 526.05 150.86 451.48"/>
          </g>
          <g>
            <polygon class="st7" points="150.86 451.48 201.88 526.05 303.92 526.05 201.88 376.92 150.86 451.48"/>
            <polygon class="st5" points="303.92 376.92 201.88 376.92 303.92 526.05 354.95 451.48 303.92 376.92"/>
          </g>
        </g>
        <g>
          <polygon class="st3" points="-2.21 526.05 -104.25 526.05 -2.21 675.18 48.81 600.61 -2.21 526.05"/>
          <g>
            <polygon class="st7" points="-2.21 675.18 48.81 749.74 150.86 749.74 48.81 600.61 -2.21 675.18"/>
            <polygon class="st3" points="150.86 600.61 48.81 600.61 150.86 749.74 201.88 675.18 150.86 600.61"/>
          </g>
          <g>
            <polygon class="st7" points="150.86 600.61 201.88 675.18 303.92 675.18 201.88 526.05 150.86 600.61"/>
            <polygon class="st5" points="303.92 526.05 201.88 526.05 303.92 675.18 354.95 600.61 303.92 526.05"/>
          </g>
        </g>
        <g>
          <polygon class="st3" points="-2.21 675.18 -104.25 675.18 -2.21 824.31 48.81 749.74 -2.21 675.18"/>
          <g>
            <polygon class="st3" points="-2.21 824.31 48.81 898.87 150.86 898.87 48.81 749.74 -2.21 824.31"/>
            <polygon class="st7" points="150.86 749.74 48.81 749.74 150.86 898.87 201.88 824.31 150.86 749.74"/>
          </g>
          <g>
            <polygon class="st3" points="150.86 749.74 201.88 824.31 303.92 824.31 201.88 675.18 150.86 749.74"/>
            <polygon class="st5" points="303.92 675.18 201.88 675.18 303.92 824.31 354.95 749.74 303.92 675.18"/>
          </g>
          <polygon class="st1" points="303.92 824.31 354.95 898.87 456.99 898.87 354.95 749.74 303.92 824.31"/>
        </g>
        <g>
          <polygon class="st2" points="-2.21 824.31 -104.25 824.31 -2.21 973.44 48.81 898.87 -2.21 824.31"/>
          <g>
            <polygon class="st3" points="-2.21 973.44 48.81 1048 150.86 1048 48.81 898.87 -2.21 973.44"/>
            <polygon class="st7" points="150.86 898.87 48.81 898.87 150.86 1048 201.88 973.44 150.86 898.87"/>
          </g>
          <g>
            <polygon class="st5" points="150.86 898.87 201.88 973.44 303.92 973.44 201.88 824.31 150.86 898.87"/>
            <polygon class="st5" points="303.92 824.31 201.88 824.31 303.92 973.44 354.95 898.87 303.92 824.31"/>
          </g>
          <g>
            <polygon class="st7" points="303.92 973.44 354.95 1048 456.99 1048 354.95 898.87 303.92 973.44"/>
            <polygon class="st1" points="456.99 898.87 354.95 898.87 456.99 1048 508.01 973.44 456.99 898.87"/>
          </g>
        </g>
        <g>
          <polygon class="st0" points="-2.21 973.44 -104.25 973.44 -2.21 1122.57 48.81 1048 -2.21 973.44"/>
          <polygon class="st7" points="150.86 1048 48.81 1048 150.86 1197.13 201.88 1122.57 150.86 1048"/>
          <g>
            <polygon class="st5" points="150.86 1048 201.88 1122.57 303.92 1122.57 201.88 973.44 150.86 1048"/>
            <polygon class="st1" points="303.92 973.44 201.88 973.44 303.92 1122.57 354.95 1048 303.92 973.44"/>
          </g>
          <polygon class="st3" points="456.99 1048 354.95 1048 456.99 1197.13 508.01 1122.57 456.99 1048"/>
          <polygon class="st7" points="610.06 973.44 508.01 973.44 610.06 1122.57 661.08 1048 610.06 973.44"/>
        </g>
      </g>
      <g>
        <g>
          <g>
            <polygon class="st0" points="1982.01 1010.72 1930.99 936.15 1828.95 936.15 1930.99 1085.28 1982.01 1010.72"/>
            <polygon class="st3" points="1828.95 1085.28 1930.99 1085.28 1828.95 936.15 1777.92 1010.72 1828.95 1085.28"/>
          </g>
          <g>
            <polygon class="st0" points="1828.95 1085.28 1777.92 1010.72 1675.88 1010.72 1777.92 1159.85 1828.95 1085.28"/>
            <polygon class="st3" points="1675.88 1159.85 1777.92 1159.85 1675.88 1010.72 1624.86 1085.28 1675.88 1159.85"/>
          </g>
          <polygon class="st2" points="1675.88 1010.72 1624.86 936.15 1522.81 936.15 1624.86 1085.28 1675.88 1010.72"/>
          <polygon class="st2" points="1522.81 1085.28 1471.79 1010.72 1369.75 1010.72 1471.79 1159.85 1522.81 1085.28"/>
        </g>
        <g>
          <g>
            <polygon class="st3" points="1982.01 861.59 1930.99 787.02 1828.95 787.02 1930.99 936.15 1982.01 861.59"/>
            <polygon class="st3" points="1828.95 936.15 1930.99 936.15 1828.95 787.02 1777.92 861.59 1828.95 936.15"/>
          </g>
          <g>
            <polygon class="st2" points="1828.95 936.15 1777.92 861.59 1675.88 861.59 1777.92 1010.72 1828.95 936.15"/>
            <polygon class="st3" points="1675.88 1010.72 1777.92 1010.72 1675.88 861.59 1624.86 936.15 1675.88 1010.72"/>
          </g>
          <polygon class="st5" points="1675.88 861.59 1624.86 787.02 1522.81 787.02 1624.86 936.15 1675.88 861.59"/>
          <polygon class="st5" points="1522.81 936.15 1471.79 861.59 1369.75 861.59 1471.79 1010.72 1522.81 936.15"/>
        </g>
        <g>
          <g>
            <polygon class="st7" points="1982.01 712.46 1930.99 637.89 1828.95 637.89 1930.99 787.02 1982.01 712.46"/>
            <polygon class="st5" points="1828.95 787.02 1930.99 787.02 1828.95 637.89 1777.92 712.46 1828.95 787.02"/>
          </g>
          <g>
            <polygon class="st7" points="1828.95 787.02 1777.92 712.46 1675.88 712.46 1777.92 861.59 1828.95 787.02"/>
            <polygon class="st5" points="1675.88 861.59 1777.92 861.59 1675.88 712.46 1624.86 787.02 1675.88 861.59"/>
          </g>
        </g>
        <g>
          <g>
            <polygon class="st3" points="1982.01 563.33 1930.99 488.76 1828.95 488.76 1930.99 637.89 1982.01 563.33"/>
            <polygon class="st3" points="1828.95 637.89 1930.99 637.89 1828.95 488.76 1777.92 563.33 1828.95 637.89"/>
          </g>
          <g>
            <polygon class="st7" points="1828.95 637.89 1777.92 563.33 1675.88 563.33 1777.92 712.46 1828.95 637.89"/>
            <polygon class="st5" points="1675.88 712.46 1777.92 712.46 1675.88 563.33 1624.86 637.89 1675.88 712.46"/>
          </g>
        </g>
        <g>
          <g>
            <polygon class="st7" points="1982.01 414.2 1930.99 339.63 1828.95 339.63 1930.99 488.76 1982.01 414.2"/>
            <polygon class="st2" points="1828.95 488.76 1930.99 488.76 1828.95 339.63 1777.92 414.2 1828.95 488.76"/>
          </g>
          <g>
            <polygon class="st3" points="1828.95 488.76 1777.92 414.2 1675.88 414.2 1777.92 563.33 1828.95 488.76"/>
            <polygon class="st5" points="1675.88 563.33 1777.92 563.33 1675.88 414.2 1624.86 488.76 1675.88 563.33"/>
          </g>
        </g>
        <g>
          <g>
            <polygon class="st2" points="1982.01 265.07 1930.99 190.51 1828.95 190.51 1930.99 339.63 1982.01 265.07"/>
            <polygon class="st7" points="1828.95 339.63 1930.99 339.63 1828.95 190.51 1777.92 265.07 1828.95 339.63"/>
          </g>
          <g>
            <polygon class="st3" points="1828.95 339.63 1777.92 265.07 1675.88 265.07 1777.92 414.2 1828.95 339.63"/>
            <polygon class="st5" points="1675.88 414.2 1777.92 414.2 1675.88 265.07 1624.86 339.63 1675.88 414.2"/>
          </g>
          <polygon class="st1" points="1675.88 265.07 1624.86 190.51 1522.81 190.51 1624.86 339.63 1675.88 265.07"/>
        </g>
        <g>
          <g>
            <polygon class="st3" points="1982.01 115.94 1930.99 41.38 1828.95 41.38 1930.99 190.51 1982.01 115.94"/>
            <polygon class="st7" points="1828.95 190.51 1930.99 190.51 1828.95 41.38 1777.92 115.94 1828.95 190.51"/>
          </g>
          <g>
            <polygon class="st5" points="1828.95 190.51 1777.92 115.94 1675.88 115.94 1777.92 265.07 1828.95 190.51"/>
            <polygon class="st3" points="1675.88 265.07 1777.92 265.07 1675.88 115.94 1624.86 190.51 1675.88 265.07"/>
          </g>
          <g>
            <polygon class="st7" points="1675.88 115.94 1624.86 41.38 1522.81 41.38 1624.86 190.51 1675.88 115.94"/>
            <polygon class="st1" points="1522.81 190.51 1624.86 190.51 1522.81 41.38 1471.79 115.94 1522.81 190.51"/>
          </g>
        </g>
        <g>
          <polygon class="st7" points="1828.95 41.38 1930.99 41.38 1828.95 -107.75 1777.92 -33.19 1828.95 41.38"/>
          <g>
            <polygon class="st5" points="1828.95 41.38 1777.92 -33.19 1675.88 -33.19 1777.92 115.94 1828.95 41.38"/>
            <polygon class="st1" points="1675.88 115.94 1777.92 115.94 1675.88 -33.19 1624.86 41.38 1675.88 115.94"/>
          </g>
          <polygon class="st3" points="1522.81 41.38 1624.86 41.38 1522.81 -107.75 1471.79 -33.19 1522.81 41.38"/>
          <polygon class="st7" points="1369.75 115.94 1471.79 115.94 1369.75 -33.19 1318.72 41.38 1369.75 115.94"/>
        </g>
      </g>
    </g>
  </g>
  <rect class="st7" x="1856.16" y="0" width="63.84" height="41.38"/>
  <polygon class="st7" points="47.09 1045.49 77 1080 15.47 1080 47.09 1045.49"/>
</svg>