<?xml version="1.0" encoding="UTF-8"?>
<svg id="Capa_1" xmlns="http://www.w3.org/2000/svg" version="1.1" viewBox="0 0 88 88">
  <!-- Generator: Adobe Illustrator 29.5.0, SVG Export Plug-In . SVG Version: 2.1.0 Build 137)  -->
  <defs>
    <style>
      .st0 {
        fill: #a10a0a;
      }
    </style>
  </defs>
  <g id="Pentool">
    <path class="st0" d="M79,36h-2.02c-.34-13.49-8.91-25.4-21.6-30h16.77c.55,2.14,2.73,3.43,4.87,2.87,2.14-.55,3.43-2.73,2.87-4.87-.55-2.14-2.73-3.43-4.87-2.87-1.41.36-2.51,1.46-2.87,2.87h-24.14v-2c0-.55-.45-1-1-1h-6c-.55,0-1,.45-1,1v2H15.86c-.55-2.14-2.73-3.43-4.87-2.87-2.14.55-3.43,2.73-2.87,4.87.55,2.14,2.73,3.43,4.87,2.87,1.41-.36,2.51-1.46,2.87-2.87h16.77c-12.69,4.6-21.26,16.51-21.6,30h-2.02c-.55,0-1,.45-1,1v6c0,.55.45,1,1,1h6c.55,0,1-.45,1-1v-6c0-.55-.45-1-1-1h-1.98c.41-15.21,11.87-27.85,26.98-29.74v1.74c0,.55.45,1,1,1h6c.55,0,1-.45,1-1v-1.74c15.1,1.89,26.56,14.52,26.98,29.74h-1.98c-.55,0-1,.45-1,1v6c0,.55.45,1,1,1h6c.55,0,1-.45,1-1v-6c0-.55-.45-1-1-1Z"/>
    <path class="st0" d="M46.89,13.55c-.25-.49-.85-.69-1.34-.45-.34.17-.55.52-.55.89v32.41c0,.4.23.75.59.91,2.03.88,2.95,3.24,2.07,5.26s-3.24,2.95-5.26,2.07-2.95-3.24-2.07-5.26c.4-.93,1.14-1.67,2.07-2.07.36-.16.59-.52.59-.91V14c0-.55-.45-1-1-1-.38,0-.73.21-.89.55l-19,38c-.14.28-.14.61,0,.89l7.28,14.55h29.24l7.28-14.55c.14-.28.14-.61,0-.89L46.89,13.55Z"/>
    <rect class="st0" x="26" y="69" width="36" height="8" rx="1" ry="1"/>
    <path class="st0" d="M29,86c0,.55.45,1,1,1h28c.55,0,1-.45,1-1v-7h-30v7Z"/>
  </g>
</svg>