<?xml version="1.0" encoding="UTF-8"?>
<svg id="OBJECTS" xmlns="http://www.w3.org/2000/svg" version="1.1" viewBox="0 0 887.04 803.78">
  <!-- Generator: Adobe Illustrator 29.5.0, SVG Export Plug-In . SVG Version: 2.1.0 Build 137)  -->
  <defs>
    <style>
      .st0 {
        fill: #fff;
      }

      .st1 {
        fill: none;
      }

      .st2 {
        fill: #012840;
      }

      .st3 {
        fill: #77c0f2;
      }

      .st4 {
        fill: #ea5066;
      }
    </style>
  </defs>
  <g>
    <circle class="st0" cx="161.35" cy="195.76" r="138.19"/>
    <circle class="st0" cx="373.29" cy="385.27" r="59.8"/>
    <circle class="st0" cx="269.97" cy="489.4" r="28.28"/>
    <circle class="st0" cx="810.24" cy="389.56" r="28.28"/>
    <circle class="st0" cx="109.5" cy="588.66" r="18.57"/>
    <circle class="st0" cx="669.36" cy="195.76" r="18.57"/>
    <circle class="st0" cx="590.77" cy="112.34" r="59.8"/>
  </g>
  <rect class="st1" x="68.52" y="95.42" width="750" height="500"/>
  <g>
    <path class="st2" d="M109.5,438.1l51.85,89.81H57.64l51.85-89.81M109.5,408.1l-77.84,134.81h155.67l-77.83-134.81h0Z"/>
    <path class="st2" d="M669.36,411.07l-29.82-51.64h59.63l-29.82,51.64M669.36,428.32l44.76-77.52h-89.51l44.76,77.52h-.01Z"/>
    <path class="st2" d="M572.69,268.51l-13.39,23.19h26.78l-13.39-23.19h0Z"/>
    <path class="st3" d="M503.1,537.17l-13.39,23.19h26.78l-13.39-23.19h0Z"/>
    <path class="st2" d="M104.59,318.71l13.39-23.19h-26.78l13.39,23.19h0Z"/>
    <path class="st4" d="M392.49,112.34l13.39-23.19h-26.78l13.39,23.19h0Z"/>
    <g>
      <polygon class="st2" points="752.8 152.95 674.96 287.76 830.63 287.76 752.8 152.95"/>
      <polygon class="st4" points="674.96 287.76 830.63 287.76 809.57 251.28 696.02 251.28 674.96 287.76"/>
    </g>
    <g>
      <polygon class="st4" points="199.43 420.56 244 343.36 154.86 343.36 199.43 420.56"/>
      <polygon class="st3" points="165.71 362.16 233.15 362.16 244 343.36 154.86 343.36 165.71 362.16"/>
    </g>
  </g>
  <g>
    <rect class="st2" x="662.67" y="510.72" width="7.73" height="7.73"/>
    <rect class="st2" x="138.02" y="148.68" width="7.73" height="7.73"/>
    <rect class="st2" x="284.94" y="557.77" width="7.73" height="7.73"/>
    <rect class="st2" x="284.94" y="533.31" width="7.73" height="7.73"/>
    <rect class="st0" x="161.35" y="427.01" width="7.73" height="7.73"/>
    <rect class="st0" x="77.86" y="557.77" width="7.73" height="7.73"/>
    <rect class="st0" x="604.99" y="293.5" width="7.73" height="7.73"/>
    <rect class="st0" x="562.23" y="328.72" width="7.73" height="7.73"/>
    <rect class="st0" x="768.97" y="566.82" width="7.73" height="7.73"/>
    <rect class="st0" x="426.98" y="501.75" width="7.73" height="7.73"/>
    <rect class="st0" x="311.99" y="251.82" width="7.73" height="7.73"/>
    <rect class="st0" x="236.27" y="381.38" width="7.73" height="7.73"/>
    <rect class="st4" x="358.41" y="533.31" width="7.73" height="7.73"/>
    <rect class="st2" x="671.09" y="164.78" width="7.73" height="7.73"/>
    <rect class="st2" x="620.74" y="92.35" width="7.73" height="7.73"/>
    <rect class="st3" x="489.71" y="164.78" width="7.73" height="7.73"/>
    <rect class="st4" x="489.71" y="181.23" width="7.73" height="7.73"/>
    <rect class="st3" x="375.23" y="533.31" width="7.73" height="7.73"/>
    <rect class="st4" x="138.02" y="177.32" width="7.73" height="7.73"/>
    <rect class="st3" x="152.98" y="177.32" width="7.73" height="7.73"/>
    <rect class="st4" x="708.16" y="510.72" width="7.73" height="7.73"/>
    <rect class="st2" x="720.96" y="510.72" width="7.73" height="7.73"/>
  </g>
  <g>
    <g>
      <circle class="st2" cx="162.88" cy="271.94" r=".5"/>
      <circle class="st2" cx="167.67" cy="271.94" r=".5"/>
      <circle class="st2" cx="172.46" cy="271.94" r=".5"/>
      <circle class="st2" cx="177.25" cy="271.94" r=".5"/>
      <circle class="st2" cx="162.88" cy="276.73" r=".5"/>
      <circle class="st2" cx="167.67" cy="276.73" r=".5"/>
      <circle class="st2" cx="172.46" cy="276.73" r=".5"/>
      <circle class="st2" cx="177.25" cy="276.73" r=".5"/>
      <circle class="st2" cx="162.88" cy="281.52" r=".5"/>
      <circle class="st2" cx="167.67" cy="281.52" r=".5"/>
      <circle class="st2" cx="172.46" cy="281.52" r=".5"/>
      <circle class="st2" cx="177.25" cy="281.52" r=".5"/>
      <circle class="st2" cx="162.88" cy="286.32" r=".5"/>
      <circle class="st2" cx="167.67" cy="286.32" r=".5"/>
      <circle class="st2" cx="172.46" cy="286.32" r=".5"/>
      <circle class="st2" cx="177.25" cy="286.32" r=".5"/>
      <path class="st2" d="M162.88,290.61c-.28,0-.5.22-.5.5s.22.5.5.5.5-.22.5-.5-.22-.5-.5-.5Z"/>
      <path class="st2" d="M167.67,290.61c-.28,0-.5.22-.5.5s.22.5.5.5.5-.22.5-.5-.22-.5-.5-.5Z"/>
      <path class="st2" d="M172.46,290.61c-.28,0-.5.22-.5.5s.22.5.5.5.5-.22.5-.5-.22-.5-.5-.5Z"/>
      <path class="st2" d="M177.25,290.61c-.28,0-.5.22-.5.5s.22.5.5.5.5-.22.5-.5-.22-.5-.5-.5Z"/>
      <circle class="st2" cx="162.88" cy="295.9" r=".5"/>
      <circle class="st2" cx="167.67" cy="295.9" r=".5"/>
      <circle class="st2" cx="172.46" cy="295.9" r=".5"/>
      <circle class="st2" cx="177.25" cy="295.9" r=".5"/>
      <circle class="st2" cx="162.88" cy="300.69" r=".5"/>
      <circle class="st2" cx="167.67" cy="300.69" r=".5"/>
      <circle class="st2" cx="172.46" cy="300.69" r=".5"/>
      <circle class="st2" cx="177.25" cy="300.69" r=".5"/>
      <path class="st2" d="M182.04,300.19c-.28,0-.5.22-.5.5s.22.5.5.5.5-.22.5-.5-.22-.5-.5-.5Z"/>
      <path class="st2" d="M186.83,300.19c-.28,0-.5.22-.5.5s.22.5.5.5.5-.22.5-.5-.22-.5-.5-.5Z"/>
      <circle class="st2" cx="191.62" cy="300.69" r=".5"/>
      <circle class="st2" cx="196.41" cy="300.69" r=".5"/>
      <circle class="st2" cx="201.2" cy="300.69" r=".5"/>
      <path class="st2" d="M206,301.19c.28,0,.5-.22.5-.5s-.22-.5-.5-.5-.5.22-.5.5.22.5.5.5Z"/>
      <path class="st2" d="M162.88,304.98c-.28,0-.5.22-.5.5s.22.5.5.5.5-.22.5-.5-.22-.5-.5-.5Z"/>
      <path class="st2" d="M167.67,304.98c-.28,0-.5.22-.5.5s.22.5.5.5.5-.22.5-.5-.22-.5-.5-.5Z"/>
      <path class="st2" d="M172.46,304.98c-.28,0-.5.22-.5.5s.22.5.5.5.5-.22.5-.5-.22-.5-.5-.5Z"/>
      <path class="st2" d="M177.25,304.98c-.28,0-.5.22-.5.5s.22.5.5.5.5-.22.5-.5-.22-.5-.5-.5Z"/>
      <path class="st2" d="M182.04,304.98c-.28,0-.5.22-.5.5s.22.5.5.5.5-.22.5-.5-.22-.5-.5-.5Z"/>
      <path class="st2" d="M186.83,304.98c-.28,0-.5.22-.5.5s.22.5.5.5.5-.22.5-.5-.22-.5-.5-.5Z"/>
      <path class="st2" d="M191.62,304.98c-.28,0-.5.22-.5.5s.22.5.5.5.5-.22.5-.5-.22-.5-.5-.5Z"/>
      <path class="st2" d="M196.41,304.98c-.28,0-.5.22-.5.5s.22.5.5.5.5-.22.5-.5-.22-.5-.5-.5Z"/>
      <path class="st2" d="M201.2,304.98c-.28,0-.5.22-.5.5s.22.5.5.5.5-.22.5-.5-.22-.5-.5-.5Z"/>
      <path class="st2" d="M206,304.98c-.28,0-.5.22-.5.5s.22.5.5.5.5-.22.5-.5-.22-.5-.5-.5Z"/>
      <path class="st2" d="M162.88,309.77c-.28,0-.5.22-.5.5s.22.5.5.5.5-.22.5-.5-.22-.5-.5-.5Z"/>
      <path class="st2" d="M167.67,309.77c-.28,0-.5.22-.5.5s.22.5.5.5.5-.22.5-.5-.22-.5-.5-.5Z"/>
      <path class="st2" d="M172.46,309.77c-.28,0-.5.22-.5.5s.22.5.5.5.5-.22.5-.5-.22-.5-.5-.5Z"/>
      <path class="st2" d="M177.25,309.77c-.28,0-.5.22-.5.5s.22.5.5.5.5-.22.5-.5-.22-.5-.5-.5Z"/>
      <path class="st2" d="M182.04,309.77c-.28,0-.5.22-.5.5s.22.5.5.5.5-.22.5-.5-.22-.5-.5-.5Z"/>
      <path class="st2" d="M186.83,309.77c-.28,0-.5.22-.5.5s.22.5.5.5.5-.22.5-.5-.22-.5-.5-.5Z"/>
      <path class="st2" d="M191.62,309.77c-.28,0-.5.22-.5.5s.22.5.5.5.5-.22.5-.5-.22-.5-.5-.5Z"/>
      <path class="st2" d="M196.41,309.77c-.28,0-.5.22-.5.5s.22.5.5.5.5-.22.5-.5-.22-.5-.5-.5Z"/>
      <path class="st2" d="M201.2,309.77c-.28,0-.5.22-.5.5s.22.5.5.5.5-.22.5-.5-.22-.5-.5-.5Z"/>
      <path class="st2" d="M206,309.77c-.28,0-.5.22-.5.5s.22.5.5.5.5-.22.5-.5-.22-.5-.5-.5Z"/>
      <circle class="st2" cx="162.88" cy="315.06" r=".5"/>
      <circle class="st2" cx="167.67" cy="315.06" r=".5"/>
      <circle class="st2" cx="172.46" cy="315.06" r=".5"/>
      <circle class="st2" cx="177.25" cy="315.06" r=".5"/>
      <path class="st2" d="M182.04,314.56c-.28,0-.5.22-.5.5s.22.5.5.5.5-.22.5-.5-.22-.5-.5-.5Z"/>
      <path class="st2" d="M186.83,314.56c-.28,0-.5.22-.5.5s.22.5.5.5.5-.22.5-.5-.22-.5-.5-.5Z"/>
      <circle class="st2" cx="191.62" cy="315.06" r=".5"/>
      <circle class="st2" cx="196.41" cy="315.06" r=".5"/>
      <circle class="st2" cx="201.2" cy="315.06" r=".5"/>
      <path class="st2" d="M206,314.56c-.28,0-.5.22-.5.5s.22.5.5.5.5-.22.5-.5-.22-.5-.5-.5Z"/>
    </g>
    <g>
      <circle class="st2" cx="747.41" cy="538.97" r=".5"/>
      <circle class="st2" cx="747.41" cy="534.18" r=".5"/>
      <path class="st2" d="M746.91,529.39c0,.28.22.5.5.5s.5-.22.5-.5-.22-.5-.5-.5-.5.22-.5.5Z"/>
      <circle class="st2" cx="747.41" cy="524.6" r=".5"/>
      <path class="st2" d="M751.7,538.97c0,.28.22.5.5.5s.5-.22.5-.5-.22-.5-.5-.5-.5.22-.5.5Z"/>
      <path class="st2" d="M751.7,534.18c0,.28.22.5.5.5s.5-.22.5-.5-.22-.5-.5-.5-.5.22-.5.5Z"/>
      <path class="st2" d="M751.7,529.39c0,.28.22.5.5.5s.5-.22.5-.5-.22-.5-.5-.5-.5.22-.5.5Z"/>
      <path class="st2" d="M751.7,524.6c0,.28.22.5.5.5s.5-.22.5-.5-.22-.5-.5-.5-.5.22-.5.5Z"/>
      <path class="st2" d="M756.49,538.97c0,.28.22.5.5.5s.5-.22.5-.5-.22-.5-.5-.5-.5.22-.5.5Z"/>
      <path class="st2" d="M756.49,534.18c0,.28.22.5.5.5s.5-.22.5-.5-.22-.5-.5-.5-.5.22-.5.5Z"/>
      <path class="st2" d="M756.49,529.39c0,.28.22.5.5.5s.5-.22.5-.5-.22-.5-.5-.5-.5.22-.5.5Z"/>
      <path class="st2" d="M756.49,524.6c0,.28.22.5.5.5s.5-.22.5-.5-.22-.5-.5-.5-.5.22-.5.5Z"/>
      <circle class="st2" cx="761.78" cy="538.97" r=".5"/>
      <circle class="st2" cx="761.78" cy="534.18" r=".5"/>
      <path class="st2" d="M761.28,529.39c0,.28.22.5.5.5s.5-.22.5-.5-.22-.5-.5-.5-.5.22-.5.5Z"/>
      <circle class="st2" cx="761.78" cy="524.6" r=".5"/>
      <circle class="st2" cx="766.57" cy="538.97" r=".5"/>
      <circle class="st2" cx="766.57" cy="534.18" r=".5"/>
      <path class="st2" d="M766.07,529.39c0,.28.22.5.5.5s.5-.22.5-.5-.22-.5-.5-.5-.5.22-.5.5Z"/>
      <circle class="st2" cx="766.57" cy="524.6" r=".5"/>
      <circle class="st2" cx="771.36" cy="538.97" r=".5"/>
      <circle class="st2" cx="771.36" cy="534.18" r=".5"/>
      <path class="st2" d="M770.86,529.39c0,.28.22.5.5.5s.5-.22.5-.5-.22-.5-.5-.5-.5.22-.5.5Z"/>
      <circle class="st2" cx="771.36" cy="524.6" r=".5"/>
      <path class="st2" d="M775.65,538.97c0,.28.22.5.5.5s.5-.22.5-.5-.22-.5-.5-.5-.5.22-.5.5Z"/>
      <path class="st2" d="M775.65,534.18c0,.28.22.5.5.5s.5-.22.5-.5-.22-.5-.5-.5-.5.22-.5.5Z"/>
      <path class="st2" d="M775.65,529.39c0,.28.22.5.5.5s.5-.22.5-.5-.22-.5-.5-.5-.5.22-.5.5Z"/>
      <path class="st2" d="M775.65,524.6c0,.28.22.5.5.5s.5-.22.5-.5-.22-.5-.5-.5-.5.22-.5.5Z"/>
      <path class="st2" d="M775.65,519.81c0,.28.22.5.5.5s.5-.22.5-.5-.22-.5-.5-.5-.5.22-.5.5Z"/>
      <path class="st2" d="M775.65,515.01c0,.28.22.5.5.5s.5-.22.5-.5-.22-.5-.5-.5-.5.22-.5.5Z"/>
      <path class="st2" d="M775.65,510.22c0,.28.22.5.5.5s.5-.22.5-.5-.22-.5-.5-.5-.5.22-.5.5Z"/>
      <path class="st2" d="M775.65,505.43c0,.28.22.5.5.5s.5-.22.5-.5-.22-.5-.5-.5-.5.22-.5.5Z"/>
      <path class="st2" d="M775.65,500.64c0,.28.22.5.5.5s.5-.22.5-.5-.22-.5-.5-.5-.5.22-.5.5Z"/>
      <path class="st2" d="M776.66,495.85c0-.28-.22-.5-.5-.5s-.5.22-.5.5.22.5.5.5.5-.22.5-.5Z"/>
      <circle class="st2" cx="780.95" cy="538.97" r=".5"/>
      <circle class="st2" cx="780.95" cy="534.18" r=".5"/>
      <path class="st2" d="M780.45,529.39c0,.28.22.5.5.5s.5-.22.5-.5-.22-.5-.5-.5-.5.22-.5.5Z"/>
      <circle class="st2" cx="780.95" cy="524.6" r=".5"/>
      <circle class="st2" cx="780.95" cy="519.81" r=".5"/>
      <circle class="st2" cx="780.95" cy="515.01" r=".5"/>
      <circle class="st2" cx="780.95" cy="510.22" r=".5"/>
      <path class="st2" d="M780.45,505.43c0,.28.22.5.5.5s.5-.22.5-.5-.22-.5-.5-.5-.5.22-.5.5Z"/>
      <circle class="st2" cx="780.95" cy="500.64" r=".5"/>
      <circle class="st2" cx="780.95" cy="495.85" r=".5"/>
      <circle class="st2" cx="785.74" cy="538.97" r=".5"/>
      <circle class="st2" cx="785.74" cy="534.18" r=".5"/>
      <path class="st2" d="M785.24,529.39c0,.28.22.5.5.5s.5-.22.5-.5-.22-.5-.5-.5-.5.22-.5.5Z"/>
      <circle class="st2" cx="785.74" cy="524.6" r=".5"/>
      <circle class="st2" cx="785.74" cy="519.81" r=".5"/>
      <circle class="st2" cx="785.74" cy="515.01" r=".5"/>
      <circle class="st2" cx="785.74" cy="510.22" r=".5"/>
      <path class="st2" d="M785.24,505.43c0,.28.22.5.5.5s.5-.22.5-.5-.22-.5-.5-.5-.5.22-.5.5Z"/>
      <circle class="st2" cx="785.74" cy="500.64" r=".5"/>
      <circle class="st2" cx="785.74" cy="495.85" r=".5"/>
      <path class="st2" d="M790.03,538.97c0,.28.22.5.5.5s.5-.22.5-.5-.22-.5-.5-.5-.5.22-.5.5Z"/>
      <path class="st2" d="M790.03,534.18c0,.28.22.5.5.5s.5-.22.5-.5-.22-.5-.5-.5-.5.22-.5.5Z"/>
      <path class="st2" d="M790.03,529.39c0,.28.22.5.5.5s.5-.22.5-.5-.22-.5-.5-.5-.5.22-.5.5Z"/>
      <path class="st2" d="M790.03,524.6c0,.28.22.5.5.5s.5-.22.5-.5-.22-.5-.5-.5-.5.22-.5.5Z"/>
      <path class="st2" d="M790.03,519.81c0,.28.22.5.5.5s.5-.22.5-.5-.22-.5-.5-.5-.5.22-.5.5Z"/>
      <path class="st2" d="M790.03,515.01c0,.28.22.5.5.5s.5-.22.5-.5-.22-.5-.5-.5-.5.22-.5.5Z"/>
      <path class="st2" d="M790.03,510.22c0,.28.22.5.5.5s.5-.22.5-.5-.22-.5-.5-.5-.5.22-.5.5Z"/>
      <path class="st2" d="M790.03,505.43c0,.28.22.5.5.5s.5-.22.5-.5-.22-.5-.5-.5-.5.22-.5.5Z"/>
      <path class="st2" d="M790.03,500.64c0,.28.22.5.5.5s.5-.22.5-.5-.22-.5-.5-.5-.5.22-.5.5Z"/>
      <path class="st2" d="M790.03,495.85c0,.28.22.5.5.5s.5-.22.5-.5-.22-.5-.5-.5-.5.22-.5.5Z"/>
    </g>
    <g>
      <circle class="st3" cx="205.93" cy="603.99" r=".5"/>
      <path class="st3" d="M210.72,604.49c-.28,0-.5-.22-.5-.5s.22-.5.5-.5.5.22.5.5-.22.5-.5.5Z"/>
      <circle class="st3" cx="215.51" cy="603.99" r=".5"/>
      <path class="st3" d="M220.3,604.49c-.28,0-.5-.22-.5-.5s.22-.5.5-.5.5.22.5.5-.22.5-.5.5Z"/>
      <circle class="st3" cx="205.93" cy="599.2" r=".5"/>
      <path class="st3" d="M210.72,599.7c-.28,0-.5-.22-.5-.5s.22-.5.5-.5.5.22.5.5-.22.5-.5.5Z"/>
      <circle class="st3" cx="215.51" cy="599.2" r=".5"/>
      <circle class="st3" cx="220.3" cy="599.2" r=".5"/>
      <circle class="st3" cx="205.93" cy="594.4" r=".5"/>
      <path class="st3" d="M210.72,594.9c-.28,0-.5-.22-.5-.5s.22-.5.5-.5.5.22.5.5-.22.5-.5.5Z"/>
      <circle class="st3" cx="215.51" cy="594.4" r=".5"/>
      <circle class="st3" cx="220.3" cy="594.4" r=".5"/>
      <circle class="st3" cx="205.93" cy="589.61" r=".5"/>
      <path class="st3" d="M210.72,590.11c-.28,0-.5-.22-.5-.5s.22-.5.5-.5.5.22.5.5-.22.5-.5.5Z"/>
      <circle class="st3" cx="215.51" cy="589.61" r=".5"/>
      <circle class="st3" cx="220.3" cy="589.61" r=".5"/>
      <path class="st3" d="M205.93,585.32c-.28,0-.5-.22-.5-.5s.22-.5.5-.5.5.22.5.5-.22.5-.5.5Z"/>
      <path class="st3" d="M210.72,585.32c-.28,0-.5-.22-.5-.5s.22-.5.5-.5.5.22.5.5-.22.5-.5.5Z"/>
      <path class="st3" d="M215.51,585.32c-.28,0-.5-.22-.5-.5s.22-.5.5-.5.5.22.5.5-.22.5-.5.5Z"/>
      <path class="st3" d="M220.3,585.32c-.28,0-.5-.22-.5-.5s.22-.5.5-.5.5.22.5.5-.22.5-.5.5Z"/>
      <circle class="st3" cx="205.93" cy="580.03" r=".5"/>
      <path class="st3" d="M210.72,580.53c-.28,0-.5-.22-.5-.5s.22-.5.5-.5.5.22.5.5-.22.5-.5.5Z"/>
      <circle class="st3" cx="215.51" cy="580.03" r=".5"/>
      <circle class="st3" cx="220.3" cy="580.03" r=".5"/>
      <circle class="st3" cx="205.93" cy="575.24" r=".5"/>
      <path class="st3" d="M210.72,575.74c-.28,0-.5-.22-.5-.5s.22-.5.5-.5.5.22.5.5-.22.5-.5.5Z"/>
      <circle class="st3" cx="215.51" cy="575.24" r=".5"/>
      <circle class="st3" cx="220.3" cy="575.24" r=".5"/>
      <path class="st3" d="M225.09,575.74c-.28,0-.5-.22-.5-.5s.22-.5.5-.5.5.22.5.5-.22.5-.5.5Z"/>
      <path class="st3" d="M229.88,575.74c-.28,0-.5-.22-.5-.5s.22-.5.5-.5.5.22.5.5-.22.5-.5.5Z"/>
      <path class="st3" d="M234.68,575.74c-.28,0-.5-.22-.5-.5s.22-.5.5-.5.5.22.5.5-.22.5-.5.5Z"/>
      <circle class="st3" cx="239.47" cy="575.24" r=".5"/>
      <circle class="st3" cx="244.26" cy="575.24" r=".5"/>
      <path class="st3" d="M249.05,574.74c.28,0,.5.22.5.5s-.22.5-.5.5-.5-.22-.5-.5.22-.5.5-.5Z"/>
      <circle class="st3" cx="205.93" cy="570.45" r=".5"/>
      <circle class="st3" cx="210.72" cy="570.45" r=".5"/>
      <circle class="st3" cx="215.51" cy="570.45" r=".5"/>
      <circle class="st3" cx="220.3" cy="570.45" r=".5"/>
      <path class="st3" d="M225.09,570.95c-.28,0-.5-.22-.5-.5s.22-.5.5-.5.5.22.5.5-.22.5-.5.5Z"/>
      <path class="st3" d="M229.88,570.95c-.28,0-.5-.22-.5-.5s.22-.5.5-.5.5.22.5.5-.22.5-.5.5Z"/>
      <path class="st3" d="M234.68,570.95c-.28,0-.5-.22-.5-.5s.22-.5.5-.5.5.22.5.5-.22.5-.5.5Z"/>
      <circle class="st3" cx="239.47" cy="570.45" r=".5"/>
      <circle class="st3" cx="244.26" cy="570.45" r=".5"/>
      <path class="st3" d="M249.05,570.95c-.28,0-.5-.22-.5-.5s.22-.5.5-.5.5.22.5.5-.22.5-.5.5Z"/>
      <path class="st3" d="M205.93,566.16c-.28,0-.5-.22-.5-.5s.22-.5.5-.5.5.22.5.5-.22.5-.5.5Z"/>
      <path class="st3" d="M210.72,566.16c-.28,0-.5-.22-.5-.5s.22-.5.5-.5.5.22.5.5-.22.5-.5.5Z"/>
      <path class="st3" d="M215.51,566.16c-.28,0-.5-.22-.5-.5s.22-.5.5-.5.5.22.5.5-.22.5-.5.5Z"/>
      <path class="st3" d="M220.3,566.16c-.28,0-.5-.22-.5-.5s.22-.5.5-.5.5.22.5.5-.22.5-.5.5Z"/>
      <path class="st3" d="M225.09,566.16c-.28,0-.5-.22-.5-.5s.22-.5.5-.5.5.22.5.5-.22.5-.5.5Z"/>
      <path class="st3" d="M229.88,566.16c-.28,0-.5-.22-.5-.5s.22-.5.5-.5.5.22.5.5-.22.5-.5.5Z"/>
      <path class="st3" d="M234.68,566.16c-.28,0-.5-.22-.5-.5s.22-.5.5-.5.5.22.5.5-.22.5-.5.5Z"/>
      <path class="st3" d="M239.47,566.16c-.28,0-.5-.22-.5-.5s.22-.5.5-.5.5.22.5.5-.22.5-.5.5Z"/>
      <path class="st3" d="M244.26,566.16c-.28,0-.5-.22-.5-.5s.22-.5.5-.5.5.22.5.5-.22.5-.5.5Z"/>
      <path class="st3" d="M249.05,566.16c-.28,0-.5-.22-.5-.5s.22-.5.5-.5.5.22.5.5-.22.5-.5.5Z"/>
      <path class="st3" d="M205.93,561.37c-.28,0-.5-.22-.5-.5s.22-.5.5-.5.5.22.5.5-.22.5-.5.5Z"/>
      <path class="st3" d="M210.72,561.37c-.28,0-.5-.22-.5-.5s.22-.5.5-.5.5.22.5.5-.22.5-.5.5Z"/>
      <path class="st3" d="M215.51,561.37c-.28,0-.5-.22-.5-.5s.22-.5.5-.5.5.22.5.5-.22.5-.5.5Z"/>
      <path class="st3" d="M220.3,561.37c-.28,0-.5-.22-.5-.5s.22-.5.5-.5.5.22.5.5-.22.5-.5.5Z"/>
      <path class="st3" d="M225.09,561.37c-.28,0-.5-.22-.5-.5s.22-.5.5-.5.5.22.5.5-.22.5-.5.5Z"/>
      <path class="st3" d="M229.88,561.37c-.28,0-.5-.22-.5-.5s.22-.5.5-.5.5.22.5.5-.22.5-.5.5Z"/>
      <path class="st3" d="M234.68,561.37c-.28,0-.5-.22-.5-.5s.22-.5.5-.5.5.22.5.5-.22.5-.5.5Z"/>
      <path class="st3" d="M239.47,561.37c-.28,0-.5-.22-.5-.5s.22-.5.5-.5.5.22.5.5-.22.5-.5.5Z"/>
      <path class="st3" d="M244.26,561.37c-.28,0-.5-.22-.5-.5s.22-.5.5-.5.5.22.5.5-.22.5-.5.5Z"/>
      <path class="st3" d="M249.05,561.37c-.28,0-.5-.22-.5-.5s.22-.5.5-.5.5.22.5.5-.22.5-.5.5Z"/>
    </g>
    <g>
      <path class="st4" d="M781.95,129.36c.28,0,.5-.22.5-.5s-.22-.5-.5-.5-.5.22-.5.5.22.5.5.5Z"/>
      <path class="st4" d="M777.16,129.36c.28,0,.5-.22.5-.5s-.22-.5-.5-.5-.5.22-.5.5.22.5.5.5Z"/>
      <path class="st4" d="M772.36,129.36c.28,0,.5-.22.5-.5s-.22-.5-.5-.5-.5.22-.5.5.22.5.5.5Z"/>
      <path class="st4" d="M767.57,129.36c.28,0,.5-.22.5-.5s-.22-.5-.5-.5-.5.22-.5.5.22.5.5.5Z"/>
      <path class="st4" d="M781.95,124.57c.28,0,.5-.22.5-.5s-.22-.5-.5-.5-.5.22-.5.5.22.5.5.5Z"/>
      <circle class="st4" cx="777.16" cy="124.07" r=".5"/>
      <circle class="st4" cx="772.36" cy="124.07" r=".5"/>
      <path class="st4" d="M767.57,124.57c.28,0,.5-.22.5-.5s-.22-.5-.5-.5-.5.22-.5.5.22.5.5.5Z"/>
      <path class="st4" d="M781.95,119.78c.28,0,.5-.22.5-.5s-.22-.5-.5-.5-.5.22-.5.5.22.5.5.5Z"/>
      <circle class="st4" cx="777.16" cy="119.28" r=".5"/>
      <circle class="st4" cx="772.36" cy="119.28" r=".5"/>
      <path class="st4" d="M767.57,119.78c.28,0,.5-.22.5-.5s-.22-.5-.5-.5-.5.22-.5.5.22.5.5.5Z"/>
      <path class="st4" d="M781.95,114.99c.28,0,.5-.22.5-.5s-.22-.5-.5-.5-.5.22-.5.5.22.5.5.5Z"/>
      <circle class="st4" cx="777.16" cy="114.49" r=".5"/>
      <circle class="st4" cx="772.36" cy="114.49" r=".5"/>
      <path class="st4" d="M767.57,114.99c.28,0,.5-.22.5-.5s-.22-.5-.5-.5-.5.22-.5.5.22.5.5.5Z"/>
      <path class="st4" d="M781.95,110.19c.28,0,.5-.22.5-.5s-.22-.5-.5-.5-.5.22-.5.5.22.5.5.5Z"/>
      <path class="st4" d="M777.16,110.19c.28,0,.5-.22.5-.5s-.22-.5-.5-.5-.5.22-.5.5.22.5.5.5Z"/>
      <path class="st4" d="M772.36,110.19c.28,0,.5-.22.5-.5s-.22-.5-.5-.5-.5.22-.5.5.22.5.5.5Z"/>
      <path class="st4" d="M767.57,110.19c.28,0,.5-.22.5-.5s-.22-.5-.5-.5-.5.22-.5.5.22.5.5.5Z"/>
      <path class="st4" d="M781.95,105.4c.28,0,.5-.22.5-.5s-.22-.5-.5-.5-.5.22-.5.5.22.5.5.5Z"/>
      <path class="st4" d="M777.16,105.4c.28,0,.5-.22.5-.5s-.22-.5-.5-.5-.5.22-.5.5.22.5.5.5Z"/>
      <path class="st4" d="M772.36,105.4c.28,0,.5-.22.5-.5s-.22-.5-.5-.5-.5.22-.5.5.22.5.5.5Z"/>
      <path class="st4" d="M767.57,105.4c.28,0,.5-.22.5-.5s-.22-.5-.5-.5-.5.22-.5.5.22.5.5.5Z"/>
      <path class="st4" d="M781.95,100.61c.28,0,.5-.22.5-.5s-.22-.5-.5-.5-.5.22-.5.5.22.5.5.5Z"/>
      <circle class="st4" cx="777.16" cy="100.11" r=".5"/>
      <circle class="st4" cx="772.36" cy="100.11" r=".5"/>
      <path class="st4" d="M767.57,100.61c.28,0,.5-.22.5-.5s-.22-.5-.5-.5-.5.22-.5.5.22.5.5.5Z"/>
      <path class="st4" d="M762.78,100.61c.28,0,.5-.22.5-.5s-.22-.5-.5-.5-.5.22-.5.5.22.5.5.5Z"/>
      <path class="st4" d="M757.99,100.61c.28,0,.5-.22.5-.5s-.22-.5-.5-.5-.5.22-.5.5.22.5.5.5Z"/>
      <path class="st4" d="M753.2,100.61c.28,0,.5-.22.5-.5s-.22-.5-.5-.5-.5.22-.5.5.22.5.5.5Z"/>
      <path class="st4" d="M748.41,100.61c.28,0,.5-.22.5-.5s-.22-.5-.5-.5-.5.22-.5.5.22.5.5.5Z"/>
      <path class="st4" d="M743.62,100.61c.28,0,.5-.22.5-.5s-.22-.5-.5-.5-.5.22-.5.5.22.5.5.5Z"/>
      <path class="st4" d="M738.83,99.61c-.28,0-.5.22-.5.5s.22.5.5.5.5-.22.5-.5-.22-.5-.5-.5Z"/>
      <path class="st4" d="M781.95,95.82c.28,0,.5-.22.5-.5s-.22-.5-.5-.5-.5.22-.5.5.22.5.5.5Z"/>
      <circle class="st4" cx="777.16" cy="95.32" r=".5"/>
      <circle class="st4" cx="772.36" cy="95.32" r=".5"/>
      <path class="st4" d="M767.57,95.82c.28,0,.5-.22.5-.5s-.22-.5-.5-.5-.5.22-.5.5.22.5.5.5Z"/>
      <path class="st4" d="M762.78,95.82c.28,0,.5-.22.5-.5s-.22-.5-.5-.5-.5.22-.5.5.22.5.5.5Z"/>
      <path class="st4" d="M757.99,95.82c.28,0,.5-.22.5-.5s-.22-.5-.5-.5-.5.22-.5.5.22.5.5.5Z"/>
      <path class="st4" d="M753.2,95.82c.28,0,.5-.22.5-.5s-.22-.5-.5-.5-.5.22-.5.5.22.5.5.5Z"/>
      <path class="st4" d="M748.41,95.82c.28,0,.5-.22.5-.5s-.22-.5-.5-.5-.5.22-.5.5.22.5.5.5Z"/>
      <path class="st4" d="M743.62,95.82c.28,0,.5-.22.5-.5s-.22-.5-.5-.5-.5.22-.5.5.22.5.5.5Z"/>
      <path class="st4" d="M738.83,95.82c.28,0,.5-.22.5-.5s-.22-.5-.5-.5-.5.22-.5.5.22.5.5.5Z"/>
      <path class="st4" d="M781.95,91.03c.28,0,.5-.22.5-.5s-.22-.5-.5-.5-.5.22-.5.5.22.5.5.5Z"/>
      <path class="st4" d="M777.16,91.03c.28,0,.5-.22.5-.5s-.22-.5-.5-.5-.5.22-.5.5.22.5.5.5Z"/>
      <path class="st4" d="M772.36,91.03c.28,0,.5-.22.5-.5s-.22-.5-.5-.5-.5.22-.5.5.22.5.5.5Z"/>
      <path class="st4" d="M767.57,91.03c.28,0,.5-.22.5-.5s-.22-.5-.5-.5-.5.22-.5.5.22.5.5.5Z"/>
      <path class="st4" d="M762.78,91.03c.28,0,.5-.22.5-.5s-.22-.5-.5-.5-.5.22-.5.5.22.5.5.5Z"/>
      <path class="st4" d="M757.99,91.03c.28,0,.5-.22.5-.5s-.22-.5-.5-.5-.5.22-.5.5.22.5.5.5Z"/>
      <path class="st4" d="M753.2,91.03c.28,0,.5-.22.5-.5s-.22-.5-.5-.5-.5.22-.5.5.22.5.5.5Z"/>
      <path class="st4" d="M748.41,91.03c.28,0,.5-.22.5-.5s-.22-.5-.5-.5-.5.22-.5.5.22.5.5.5Z"/>
      <path class="st4" d="M743.62,91.03c.28,0,.5-.22.5-.5s-.22-.5-.5-.5-.5.22-.5.5.22.5.5.5Z"/>
      <path class="st4" d="M738.83,91.03c.28,0,.5-.22.5-.5s-.22-.5-.5-.5-.5.22-.5.5.22.5.5.5Z"/>
      <path class="st4" d="M781.95,86.24c.28,0,.5-.22.5-.5s-.22-.5-.5-.5-.5.22-.5.5.22.5.5.5Z"/>
      <path class="st4" d="M777.16,86.24c.28,0,.5-.22.5-.5s-.22-.5-.5-.5-.5.22-.5.5.22.5.5.5Z"/>
      <path class="st4" d="M772.36,86.24c.28,0,.5-.22.5-.5s-.22-.5-.5-.5-.5.22-.5.5.22.5.5.5Z"/>
      <path class="st4" d="M767.57,86.24c.28,0,.5-.22.5-.5s-.22-.5-.5-.5-.5.22-.5.5.22.5.5.5Z"/>
      <path class="st4" d="M762.78,86.24c.28,0,.5-.22.5-.5s-.22-.5-.5-.5-.5.22-.5.5.22.5.5.5Z"/>
      <path class="st4" d="M757.99,86.24c.28,0,.5-.22.5-.5s-.22-.5-.5-.5-.5.22-.5.5.22.5.5.5Z"/>
      <path class="st4" d="M753.2,86.24c.28,0,.5-.22.5-.5s-.22-.5-.5-.5-.5.22-.5.5.22.5.5.5Z"/>
      <path class="st4" d="M748.41,86.24c.28,0,.5-.22.5-.5s-.22-.5-.5-.5-.5.22-.5.5.22.5.5.5Z"/>
      <path class="st4" d="M743.62,86.24c.28,0,.5-.22.5-.5s-.22-.5-.5-.5-.5.22-.5.5.22.5.5.5Z"/>
      <path class="st4" d="M738.83,86.24c.28,0,.5-.22.5-.5s-.22-.5-.5-.5-.5.22-.5.5.22.5.5.5Z"/>
    </g>
    <g>
      <path class="st3" d="M590.67,140.03c0-.28.22-.5.5-.5s.5.22.5.5-.22.5-.5.5-.5-.22-.5-.5Z"/>
      <path class="st3" d="M590.67,144.83c0-.28.22-.5.5-.5s.5.22.5.5-.22.5-.5.5-.5-.22-.5-.5Z"/>
      <path class="st3" d="M590.67,149.62c0-.28.22-.5.5-.5s.5.22.5.5-.22.5-.5.5-.5-.22-.5-.5Z"/>
      <path class="st3" d="M590.67,154.41c0-.28.22-.5.5-.5s.5.22.5.5-.22.5-.5.5-.5-.22-.5-.5Z"/>
      <circle class="st3" cx="595.96" cy="140.03" r=".5"/>
      <circle class="st3" cx="595.96" cy="144.83" r=".5"/>
      <path class="st3" d="M595.46,149.62c0-.28.22-.5.5-.5s.5.22.5.5-.22.5-.5.5-.5-.22-.5-.5Z"/>
      <circle class="st3" cx="595.96" cy="154.41" r=".5"/>
      <path class="st3" d="M600.25,140.03c0-.28.22-.5.5-.5s.5.22.5.5-.22.5-.5.5-.5-.22-.5-.5Z"/>
      <path class="st3" d="M600.25,144.83c0-.28.22-.5.5-.5s.5.22.5.5-.22.5-.5.5-.5-.22-.5-.5Z"/>
      <path class="st3" d="M600.25,149.62c0-.28.22-.5.5-.5s.5.22.5.5-.22.5-.5.5-.5-.22-.5-.5Z"/>
      <path class="st3" d="M600.25,154.41c0-.28.22-.5.5-.5s.5.22.5.5-.22.5-.5.5-.5-.22-.5-.5Z"/>
      <path class="st3" d="M605.04,140.03c0-.28.22-.5.5-.5s.5.22.5.5-.22.5-.5.5-.5-.22-.5-.5Z"/>
      <path class="st3" d="M605.04,144.83c0-.28.22-.5.5-.5s.5.22.5.5-.22.5-.5.5-.5-.22-.5-.5Z"/>
      <path class="st3" d="M605.04,149.62c0-.28.22-.5.5-.5s.5.22.5.5-.22.5-.5.5-.5-.22-.5-.5Z"/>
      <path class="st3" d="M605.04,154.41c0-.28.22-.5.5-.5s.5.22.5.5-.22.5-.5.5-.5-.22-.5-.5Z"/>
      <circle class="st3" cx="610.33" cy="140.03" r=".5"/>
      <circle class="st3" cx="610.33" cy="144.83" r=".5"/>
      <path class="st3" d="M609.83,149.62c0-.28.22-.5.5-.5s.5.22.5.5-.22.5-.5.5-.5-.22-.5-.5Z"/>
      <circle class="st3" cx="610.33" cy="154.41" r=".5"/>
      <circle class="st3" cx="615.12" cy="140.03" r=".5"/>
      <circle class="st3" cx="615.12" cy="144.83" r=".5"/>
      <path class="st3" d="M614.62,149.62c0-.28.22-.5.5-.5s.5.22.5.5-.22.5-.5.5-.5-.22-.5-.5Z"/>
      <circle class="st3" cx="615.12" cy="154.41" r=".5"/>
      <path class="st3" d="M619.41,140.03c0-.28.22-.5.5-.5s.5.22.5.5-.22.5-.5.5-.5-.22-.5-.5Z"/>
      <path class="st3" d="M619.41,144.83c0-.28.22-.5.5-.5s.5.22.5.5-.22.5-.5.5-.5-.22-.5-.5Z"/>
      <path class="st3" d="M619.41,149.62c0-.28.22-.5.5-.5s.5.22.5.5-.22.5-.5.5-.5-.22-.5-.5Z"/>
      <path class="st3" d="M619.41,154.41c0-.28.22-.5.5-.5s.5.22.5.5-.22.5-.5.5-.5-.22-.5-.5Z"/>
      <path class="st3" d="M619.41,159.2c0-.28.22-.5.5-.5s.5.22.5.5-.22.5-.5.5-.5-.22-.5-.5Z"/>
      <path class="st3" d="M619.41,163.99c0-.28.22-.5.5-.5s.5.22.5.5-.22.5-.5.5-.5-.22-.5-.5Z"/>
      <path class="st3" d="M619.41,168.78c0-.28.22-.5.5-.5s.5.22.5.5-.22.5-.5.5-.5-.22-.5-.5Z"/>
      <path class="st3" d="M619.41,173.57c0-.28.22-.5.5-.5s.5.22.5.5-.22.5-.5.5-.5-.22-.5-.5Z"/>
      <path class="st3" d="M619.41,178.36c0-.28.22-.5.5-.5s.5.22.5.5-.22.5-.5.5-.5-.22-.5-.5Z"/>
      <path class="st3" d="M620.41,183.15c0,.28-.22.5-.5.5s-.5-.22-.5-.5.22-.5.5-.5.5.22.5.5Z"/>
      <circle class="st3" cx="624.7" cy="140.03" r=".5"/>
      <circle class="st3" cx="624.7" cy="144.83" r=".5"/>
      <path class="st3" d="M624.2,149.62c0-.28.22-.5.5-.5s.5.22.5.5-.22.5-.5.5-.5-.22-.5-.5Z"/>
      <circle class="st3" cx="624.7" cy="154.41" r=".5"/>
      <path class="st3" d="M624.2,159.2c0-.28.22-.5.5-.5s.5.22.5.5-.22.5-.5.5-.5-.22-.5-.5Z"/>
      <path class="st3" d="M624.2,163.99c0-.28.22-.5.5-.5s.5.22.5.5-.22.5-.5.5-.5-.22-.5-.5Z"/>
      <path class="st3" d="M624.2,168.78c0-.28.22-.5.5-.5s.5.22.5.5-.22.5-.5.5-.5-.22-.5-.5Z"/>
      <path class="st3" d="M624.2,173.57c0-.28.22-.5.5-.5s.5.22.5.5-.22.5-.5.5-.5-.22-.5-.5Z"/>
      <path class="st3" d="M624.2,178.36c0-.28.22-.5.5-.5s.5.22.5.5-.22.5-.5.5-.5-.22-.5-.5Z"/>
      <path class="st3" d="M624.2,183.15c0-.28.22-.5.5-.5s.5.22.5.5-.22.5-.5.5-.5-.22-.5-.5Z"/>
      <circle class="st3" cx="629.49" cy="140.03" r=".5"/>
      <circle class="st3" cx="629.49" cy="144.83" r=".5"/>
      <path class="st3" d="M628.99,149.62c0-.28.22-.5.5-.5s.5.22.5.5-.22.5-.5.5-.5-.22-.5-.5Z"/>
      <circle class="st3" cx="629.49" cy="154.41" r=".5"/>
      <circle class="st3" cx="629.49" cy="159.2" r=".5"/>
      <circle class="st3" cx="629.49" cy="163.99" r=".5"/>
      <path class="st3" d="M628.99,168.78c0-.28.22-.5.5-.5s.5.22.5.5-.22.5-.5.5-.5-.22-.5-.5Z"/>
      <path class="st3" d="M628.99,173.57c0-.28.22-.5.5-.5s.5.22.5.5-.22.5-.5.5-.5-.22-.5-.5Z"/>
      <circle class="st3" cx="629.49" cy="178.36" r=".5"/>
      <circle class="st3" cx="629.49" cy="183.15" r=".5"/>
      <circle class="st3" cx="634.28" cy="140.03" r=".5"/>
      <circle class="st3" cx="634.28" cy="144.83" r=".5"/>
      <path class="st3" d="M633.78,149.62c0-.28.22-.5.5-.5s.5.22.5.5-.22.5-.5.5-.5-.22-.5-.5Z"/>
      <circle class="st3" cx="634.28" cy="154.41" r=".5"/>
      <circle class="st3" cx="634.28" cy="159.2" r=".5"/>
      <circle class="st3" cx="634.28" cy="163.99" r=".5"/>
      <path class="st3" d="M633.78,168.78c0-.28.22-.5.5-.5s.5.22.5.5-.22.5-.5.5-.5-.22-.5-.5Z"/>
      <path class="st3" d="M633.78,173.57c0-.28.22-.5.5-.5s.5.22.5.5-.22.5-.5.5-.5-.22-.5-.5Z"/>
      <circle class="st3" cx="634.28" cy="178.36" r=".5"/>
      <circle class="st3" cx="634.28" cy="183.15" r=".5"/>
    </g>
    <g>
      <path class="st4" d="M103.37,117.98c.28,0,.5.22.5.5s-.22.5-.5.5-.5-.22-.5-.5.22-.5.5-.5Z"/>
      <path class="st4" d="M98.58,117.98c.28,0,.5.22.5.5s-.22.5-.5.5-.5-.22-.5-.5.22-.5.5-.5Z"/>
      <path class="st4" d="M93.79,117.98c.28,0,.5.22.5.5s-.22.5-.5.5-.5-.22-.5-.5.22-.5.5-.5Z"/>
      <path class="st4" d="M88.99,117.98c.28,0,.5.22.5.5s-.22.5-.5.5-.5-.22-.5-.5.22-.5.5-.5Z"/>
      <path class="st4" d="M103.37,122.77c.28,0,.5.22.5.5s-.22.5-.5.5-.5-.22-.5-.5.22-.5.5-.5Z"/>
      <circle class="st4" cx="98.58" cy="123.27" r=".5"/>
      <path class="st4" d="M93.79,122.77c.28,0,.5.22.5.5s-.22.5-.5.5-.5-.22-.5-.5.22-.5.5-.5Z"/>
      <path class="st4" d="M88.99,122.77c.28,0,.5.22.5.5s-.22.5-.5.5-.5-.22-.5-.5.22-.5.5-.5Z"/>
      <path class="st4" d="M103.37,127.56c.28,0,.5.22.5.5s-.22.5-.5.5-.5-.22-.5-.5.22-.5.5-.5Z"/>
      <circle class="st4" cx="98.58" cy="128.06" r=".5"/>
      <circle class="st4" cx="93.79" cy="128.06" r=".5"/>
      <circle class="st4" cx="88.99" cy="128.06" r=".5"/>
      <path class="st4" d="M103.37,132.35c.28,0,.5.22.5.5s-.22.5-.5.5-.5-.22-.5-.5.22-.5.5-.5Z"/>
      <circle class="st4" cx="98.58" cy="132.85" r=".5"/>
      <circle class="st4" cx="93.79" cy="132.85" r=".5"/>
      <circle class="st4" cx="88.99" cy="132.85" r=".5"/>
      <path class="st4" d="M103.37,137.14c.28,0,.5.22.5.5s-.22.5-.5.5-.5-.22-.5-.5.22-.5.5-.5Z"/>
      <circle class="st4" cx="98.58" cy="137.64" r=".5"/>
      <circle class="st4" cx="93.79" cy="137.64" r=".5"/>
      <path class="st4" d="M88.99,137.14c.28,0,.5.22.5.5s-.22.5-.5.5-.5-.22-.5-.5.22-.5.5-.5Z"/>
      <path class="st4" d="M103.37,141.93c.28,0,.5.22.5.5s-.22.5-.5.5-.5-.22-.5-.5.22-.5.5-.5Z"/>
      <circle class="st4" cx="98.58" cy="142.43" r=".5"/>
      <circle class="st4" cx="93.79" cy="142.43" r=".5"/>
      <path class="st4" d="M88.99,141.93c.28,0,.5.22.5.5s-.22.5-.5.5-.5-.22-.5-.5.22-.5.5-.5Z"/>
      <path class="st4" d="M103.37,146.72c.28,0,.5.22.5.5s-.22.5-.5.5-.5-.22-.5-.5.22-.5.5-.5Z"/>
      <circle class="st4" cx="98.58" cy="147.22" r=".5"/>
      <circle class="st4" cx="93.79" cy="147.22" r=".5"/>
      <path class="st4" d="M88.99,146.72c.28,0,.5.22.5.5s-.22.5-.5.5-.5-.22-.5-.5.22-.5.5-.5Z"/>
      <path class="st4" d="M84.2,146.72c.28,0,.5.22.5.5s-.22.5-.5.5-.5-.22-.5-.5.22-.5.5-.5Z"/>
      <circle class="st4" cx="79.41" cy="147.22" r=".5"/>
      <path class="st4" d="M74.62,146.72c.28,0,.5.22.5.5s-.22.5-.5.5-.5-.22-.5-.5.22-.5.5-.5Z"/>
      <circle class="st4" cx="69.84" cy="147.23" r=".5"/>
      <path class="st4" d="M65.04,146.72c.28,0,.5.22.5.5s-.22.5-.5.5-.5-.22-.5-.5.22-.5.5-.5Z"/>
      <path class="st4" d="M60.25,147.72c-.28,0-.5-.22-.5-.5s.22-.5.5-.5.5.22.5.5-.22.5-.5.5Z"/>
      <circle class="st4" cx="103.37" cy="152.01" r=".5"/>
      <circle class="st4" cx="98.58" cy="152.01" r=".5"/>
      <circle class="st4" cx="93.79" cy="152.01" r=".5"/>
      <path class="st4" d="M88.99,151.51c.28,0,.5.22.5.5s-.22.5-.5.5-.5-.22-.5-.5.22-.5.5-.5Z"/>
      <path class="st4" d="M84.2,151.51c.28,0,.5.22.5.5s-.22.5-.5.5-.5-.22-.5-.5.22-.5.5-.5Z"/>
      <circle class="st4" cx="79.41" cy="152.01" r=".5"/>
      <path class="st4" d="M74.62,151.51c.28,0,.5.22.5.5s-.22.5-.5.5-.5-.22-.5-.5.22-.5.5-.5Z"/>
      <path class="st4" d="M69.83,151.51c.28,0,.5.22.5.5s-.22.5-.5.5-.5-.22-.5-.5.22-.5.5-.5Z"/>
      <path class="st4" d="M65.04,151.51c.28,0,.5.22.5.5s-.22.5-.5.5-.5-.22-.5-.5.22-.5.5-.5Z"/>
      <path class="st4" d="M60.25,151.51c.28,0,.5.22.5.5s-.22.5-.5.5-.5-.22-.5-.5.22-.5.5-.5Z"/>
      <circle class="st4" cx="103.37" cy="156.8" r=".5"/>
      <circle class="st4" cx="98.58" cy="156.8" r=".5"/>
      <circle class="st4" cx="93.79" cy="156.8" r=".5"/>
      <path class="st4" d="M88.99,156.3c.28,0,.5.22.5.5s-.22.5-.5.5-.5-.22-.5-.5.22-.5.5-.5Z"/>
      <path class="st4" d="M84.2,156.3c.28,0,.5.22.5.5s-.22.5-.5.5-.5-.22-.5-.5.22-.5.5-.5Z"/>
      <circle class="st4" cx="79.41" cy="156.8" r=".5"/>
      <circle class="st4" cx="74.62" cy="156.8" r=".5"/>
      <circle class="st4" cx="69.83" cy="156.8" r=".5"/>
      <path class="st4" d="M65.04,156.3c.28,0,.5.22.5.5s-.22.5-.5.5-.5-.22-.5-.5.22-.5.5-.5Z"/>
      <circle class="st4" cx="60.25" cy="156.8" r=".5"/>
      <path class="st4" d="M103.37,161.09c.28,0,.5.22.5.5s-.22.5-.5.5-.5-.22-.5-.5.22-.5.5-.5Z"/>
      <path class="st4" d="M98.58,161.09c.28,0,.5.22.5.5s-.22.5-.5.5-.5-.22-.5-.5.22-.5.5-.5Z"/>
      <path class="st4" d="M93.79,161.09c.28,0,.5.22.5.5s-.22.5-.5.5-.5-.22-.5-.5.22-.5.5-.5Z"/>
      <path class="st4" d="M88.99,161.09c.28,0,.5.22.5.5s-.22.5-.5.5-.5-.22-.5-.5.22-.5.5-.5Z"/>
      <path class="st4" d="M84.2,161.09c.28,0,.5.22.5.5s-.22.5-.5.5-.5-.22-.5-.5.22-.5.5-.5Z"/>
      <path class="st4" d="M79.41,161.09c.28,0,.5.22.5.5s-.22.5-.5.5-.5-.22-.5-.5.22-.5.5-.5Z"/>
      <path class="st4" d="M74.62,161.09c.28,0,.5.22.5.5s-.22.5-.5.5-.5-.22-.5-.5.22-.5.5-.5Z"/>
      <circle class="st4" cx="69.83" cy="161.6" r=".5"/>
      <path class="st4" d="M65.04,161.09c.28,0,.5.22.5.5s-.22.5-.5.5-.5-.22-.5-.5.22-.5.5-.5Z"/>
      <path class="st4" d="M60.25,161.09c.28,0,.5.22.5.5s-.22.5-.5.5-.5-.22-.5-.5.22-.5.5-.5Z"/>
    </g>
    <g>
      <circle class="st4" cx="534.88" cy="437.6" r=".5"/>
      <circle class="st4" cx="539.67" cy="437.6" r=".5"/>
      <path class="st4" d="M544.46,438.1c-.28,0-.5-.22-.5-.5s.22-.5.5-.5.5.22.5.5-.22.5-.5.5Z"/>
      <circle class="st4" cx="549.25" cy="437.6" r=".5"/>
      <circle class="st4" cx="534.88" cy="432.81" r=".5"/>
      <circle class="st4" cx="539.67" cy="432.81" r=".5"/>
      <path class="st4" d="M544.46,433.31c-.28,0-.5-.22-.5-.5s.22-.5.5-.5.5.22.5.5-.22.5-.5.5Z"/>
      <circle class="st4" cx="549.25" cy="432.81" r=".5"/>
      <circle class="st4" cx="534.88" cy="428.02" r=".5"/>
      <circle class="st4" cx="539.67" cy="428.02" r=".5"/>
      <path class="st4" d="M544.46,428.52c-.28,0-.5-.22-.5-.5s.22-.5.5-.5.5.22.5.5-.22.5-.5.5Z"/>
      <circle class="st4" cx="549.25" cy="428.02" r=".5"/>
      <path class="st4" d="M534.88,423.73c-.28,0-.5-.22-.5-.5s.22-.5.5-.5.5.22.5.5-.22.5-.5.5Z"/>
      <path class="st4" d="M539.67,423.73c-.28,0-.5-.22-.5-.5s.22-.5.5-.5.5.22.5.5-.22.5-.5.5Z"/>
      <path class="st4" d="M544.46,423.73c-.28,0-.5-.22-.5-.5s.22-.5.5-.5.5.22.5.5-.22.5-.5.5Z"/>
      <path class="st4" d="M549.25,423.73c-.28,0-.5-.22-.5-.5s.22-.5.5-.5.5.22.5.5-.22.5-.5.5Z"/>
      <circle class="st4" cx="534.88" cy="418.44" r=".5"/>
      <circle class="st4" cx="539.67" cy="418.44" r=".5"/>
      <path class="st4" d="M544.46,418.94c-.28,0-.5-.22-.5-.5s.22-.5.5-.5.5.22.5.5-.22.5-.5.5Z"/>
      <circle class="st4" cx="549.25" cy="418.44" r=".5"/>
      <circle class="st4" cx="534.88" cy="413.65" r=".5"/>
      <path class="st4" d="M539.67,414.15c-.28,0-.5-.22-.5-.5s.22-.5.5-.5.5.22.5.5-.22.5-.5.5Z"/>
      <circle class="st4" cx="544.46" cy="413.65" r=".5"/>
      <circle class="st4" cx="549.25" cy="413.65" r=".5"/>
      <path class="st4" d="M534.88,409.36c-.28,0-.5-.22-.5-.5s.22-.5.5-.5.5.22.5.5-.22.5-.5.5Z"/>
      <path class="st4" d="M539.67,409.36c-.28,0-.5-.22-.5-.5s.22-.5.5-.5.5.22.5.5-.22.5-.5.5Z"/>
      <path class="st4" d="M544.46,409.36c-.28,0-.5-.22-.5-.5s.22-.5.5-.5.5.22.5.5-.22.5-.5.5Z"/>
      <path class="st4" d="M549.25,409.36c-.28,0-.5-.22-.5-.5s.22-.5.5-.5.5.22.5.5-.22.5-.5.5Z"/>
      <circle class="st4" cx="554.04" cy="408.86" r=".5"/>
      <circle class="st4" cx="558.84" cy="408.86" r=".5"/>
      <path class="st4" d="M563.63,409.36c-.28,0-.5-.22-.5-.5s.22-.5.5-.5.5.22.5.5-.22.5-.5.5Z"/>
      <path class="st4" d="M568.42,409.36c-.28,0-.5-.22-.5-.5s.22-.5.5-.5.5.22.5.5-.22.5-.5.5Z"/>
      <path class="st4" d="M573.21,409.36c-.28,0-.5-.22-.5-.5s.22-.5.5-.5.5.22.5.5-.22.5-.5.5Z"/>
      <path class="st4" d="M578,408.36c.28,0,.5.22.5.5s-.22.5-.5.5-.5-.22-.5-.5.22-.5.5-.5Z"/>
      <path class="st4" d="M534.88,404.57c-.28,0-.5-.22-.5-.5s.22-.5.5-.5.5.22.5.5-.22.5-.5.5Z"/>
      <path class="st4" d="M539.67,404.57c-.28,0-.5-.22-.5-.5s.22-.5.5-.5.5.22.5.5-.22.5-.5.5Z"/>
      <path class="st4" d="M544.46,404.57c-.28,0-.5-.22-.5-.5s.22-.5.5-.5.5.22.5.5-.22.5-.5.5Z"/>
      <path class="st4" d="M549.25,404.57c-.28,0-.5-.22-.5-.5s.22-.5.5-.5.5.22.5.5-.22.5-.5.5Z"/>
      <path class="st4" d="M554.04,404.57c-.28,0-.5-.22-.5-.5s.22-.5.5-.5.5.22.5.5-.22.5-.5.5Z"/>
      <path class="st4" d="M558.84,404.57c-.28,0-.5-.22-.5-.5s.22-.5.5-.5.5.22.5.5-.22.5-.5.5Z"/>
      <path class="st4" d="M563.63,404.57c-.28,0-.5-.22-.5-.5s.22-.5.5-.5.5.22.5.5-.22.5-.5.5Z"/>
      <path class="st4" d="M568.42,404.57c-.28,0-.5-.22-.5-.5s.22-.5.5-.5.5.22.5.5-.22.5-.5.5Z"/>
      <path class="st4" d="M573.21,404.57c-.28,0-.5-.22-.5-.5s.22-.5.5-.5.5.22.5.5-.22.5-.5.5Z"/>
      <path class="st4" d="M578,404.57c-.28,0-.5-.22-.5-.5s.22-.5.5-.5.5.22.5.5-.22.5-.5.5Z"/>
      <circle class="st4" cx="534.88" cy="399.27" r=".5"/>
      <path class="st4" d="M539.67,399.77c-.28,0-.5-.22-.5-.5s.22-.5.5-.5.5.22.5.5-.22.5-.5.5Z"/>
      <circle class="st4" cx="544.46" cy="399.27" r=".5"/>
      <circle class="st4" cx="549.25" cy="399.27" r=".5"/>
      <circle class="st4" cx="554.04" cy="399.27" r=".5"/>
      <path class="st4" d="M558.84,399.77c-.28,0-.5-.22-.5-.5s.22-.5.5-.5.5.22.5.5-.22.5-.5.5Z"/>
      <path class="st4" d="M563.63,399.77c-.28,0-.5-.22-.5-.5s.22-.5.5-.5.5.22.5.5-.22.5-.5.5Z"/>
      <path class="st4" d="M568.42,399.77c-.28,0-.5-.22-.5-.5s.22-.5.5-.5.5.22.5.5-.22.5-.5.5Z"/>
      <path class="st4" d="M573.21,399.77c-.28,0-.5-.22-.5-.5s.22-.5.5-.5.5.22.5.5-.22.5-.5.5Z"/>
      <path class="st4" d="M578,399.77c-.28,0-.5-.22-.5-.5s.22-.5.5-.5.5.22.5.5-.22.5-.5.5Z"/>
      <circle class="st4" cx="534.88" cy="394.48" r=".5"/>
      <path class="st4" d="M539.67,394.98c-.28,0-.5-.22-.5-.5s.22-.5.5-.5.5.22.5.5-.22.5-.5.5Z"/>
      <circle class="st4" cx="544.46" cy="394.48" r=".5"/>
      <circle class="st4" cx="549.25" cy="394.48" r=".5"/>
      <circle class="st4" cx="554.04" cy="394.48" r=".5"/>
      <circle class="st4" cx="558.84" cy="394.48" r=".5"/>
      <path class="st4" d="M563.63,394.98c-.28,0-.5-.22-.5-.5s.22-.5.5-.5.5.22.5.5-.22.5-.5.5Z"/>
      <path class="st4" d="M568.42,394.98c-.28,0-.5-.22-.5-.5s.22-.5.5-.5.5.22.5.5-.22.5-.5.5Z"/>
      <path class="st4" d="M573.21,394.98c-.28,0-.5-.22-.5-.5s.22-.5.5-.5.5.22.5.5-.22.5-.5.5Z"/>
      <path class="st4" d="M578,394.98c-.28,0-.5-.22-.5-.5s.22-.5.5-.5.5.22.5.5-.22.5-.5.5Z"/>
    </g>
  </g>
  <g>
    <g>
      <polygon class="st2" points="375.8 244.7 389.06 253.16 389.33 252.73 375.8 244.1 362.28 252.73 362.55 253.16 375.8 244.7"/>
      <polygon class="st2" points="362.28 258.52 362.55 258.95 375.8 250.49 389.06 258.95 389.33 258.52 375.8 249.89 362.28 258.52"/>
      <polygon class="st2" points="362.28 264.32 362.55 264.74 375.8 256.28 389.06 264.74 389.33 264.32 375.8 255.68 362.28 264.32"/>
    </g>
    <g>
      <polygon class="st2" points="566.1 110.47 552.84 102.01 552.57 102.43 566.1 111.06 579.62 102.43 579.35 102.01 566.1 110.47"/>
      <polygon class="st2" points="579.62 96.64 579.35 96.22 566.1 104.68 552.84 96.22 552.57 96.64 566.1 105.27 579.62 96.64"/>
      <polygon class="st2" points="579.62 90.85 579.35 90.43 566.1 98.89 552.84 90.43 552.57 90.85 566.1 99.48 579.62 90.85"/>
    </g>
    <g>
      <polygon class="st2" points="811.37 421.16 824.62 429.62 824.89 429.19 811.37 420.56 797.84 429.19 798.11 429.62 811.37 421.16"/>
      <polygon class="st2" points="797.84 434.98 798.11 435.41 811.37 426.95 824.62 435.41 824.89 434.98 811.37 426.35 797.84 434.98"/>
      <polygon class="st2" points="797.84 440.78 798.11 441.2 811.37 432.74 824.62 441.2 824.89 440.78 811.37 432.14 797.84 440.78"/>
    </g>
    <g>
      <polygon class="st2" points="811.37 153.13 824.62 161.59 824.89 161.17 811.37 152.54 797.84 161.17 798.11 161.59 811.37 153.13"/>
      <polygon class="st2" points="797.84 166.96 798.11 167.38 811.37 158.92 824.62 167.38 824.89 166.96 811.37 158.33 797.84 166.96"/>
      <polygon class="st2" points="797.84 172.75 798.11 173.18 811.37 164.72 824.62 173.18 824.89 172.75 811.37 164.12 797.84 172.75"/>
    </g>
    <g>
      <polygon class="st2" points="77.86 181.78 91.12 190.24 91.39 189.82 77.86 181.19 64.34 189.82 64.61 190.24 77.86 181.78"/>
      <polygon class="st2" points="64.34 195.61 64.61 196.03 77.86 187.57 91.12 196.03 91.39 195.61 77.86 186.98 64.34 195.61"/>
      <polygon class="st2" points="64.34 201.4 64.61 201.82 77.86 193.36 91.12 201.82 91.39 201.4 77.86 192.77 64.34 201.4"/>
    </g>
    <g>
      <polygon class="st2" points="191.46 495.55 178.2 487.09 177.93 487.51 191.46 496.14 204.98 487.51 204.71 487.09 191.46 495.55"/>
      <polygon class="st2" points="204.98 481.72 204.71 481.3 191.46 489.76 178.2 481.3 177.93 481.72 191.46 490.35 204.98 481.72"/>
      <polygon class="st2" points="204.98 475.93 204.71 475.51 191.46 483.97 178.2 475.51 177.93 475.93 191.46 484.56 204.98 475.93"/>
    </g>
    <g>
      <polygon class="st2" points="642.12 550.64 655.38 559.1 655.64 558.68 642.12 550.05 628.59 558.68 628.86 559.1 642.12 550.64"/>
      <polygon class="st2" points="628.59 564.47 628.86 564.89 642.12 556.43 655.38 564.89 655.64 564.47 642.12 555.84 628.59 564.47"/>
      <polygon class="st2" points="628.59 570.26 628.86 570.69 642.12 562.23 655.38 570.69 655.64 570.26 642.12 561.63 628.59 570.26"/>
    </g>
  </g>
  <g>
    <g>
      <rect class="st2" x="313.47" y="499.43" width="88.49" height=".56"/>
      <rect class="st2" x="313.47" y="505.86" width="88.49" height=".56"/>
      <rect class="st2" x="313.47" y="512.29" width="88.49" height=".56"/>
    </g>
    <g>
      <rect class="st2" x="2.62" y="573.83" width="88.49" height=".56"/>
      <rect class="st2" x="2.62" y="580.26" width="88.49" height=".56"/>
      <rect class="st2" x="2.62" y="586.69" width="88.49" height=".56"/>
    </g>
    <g>
      <rect class="st2" x="417.69" y="120.37" width="88.49" height=".56"/>
      <rect class="st2" x="417.69" y="126.8" width="88.49" height=".56"/>
      <rect class="st2" x="417.69" y="133.24" width="88.49" height=".56"/>
    </g>
    <g>
      <rect class="st2" x="753.36" y="302.9" width="88.49" height=".56"/>
      <rect class="st2" x="753.36" y="309.33" width="88.49" height=".56"/>
      <rect class="st2" x="753.36" y="315.76" width="88.49" height=".56"/>
    </g>
    <g>
      <rect class="st2" x="120.68" y="208.63" width="88.49" height=".56"/>
      <rect class="st2" x="120.68" y="215.06" width="88.49" height=".56"/>
      <rect class="st2" x="120.68" y="221.49" width="88.49" height=".56"/>
    </g>
  </g>
  <g>
    <path class="st2" d="M173.87,326.13h-51.82c-1.61,0-2.92,1.31-2.92,2.92h0c0,1.61,1.31,2.92,2.92,2.92h51.82c1.61,0,2.92-1.31,2.92-2.92h0c0-1.61-1.31-2.92-2.92-2.92Z"/>
    <path class="st2" d="M848.73,114.8h-51.82c-1.61,0-2.92,1.31-2.92,2.92h0c0,1.61,1.31,2.92,2.92,2.92h51.82c1.61,0,2.92-1.31,2.92-2.92h0c0-1.61-1.31-2.92-2.92-2.92Z"/>
    <path class="st2" d="M614.21,537.91h-51.82c-1.61,0-2.92,1.31-2.92,2.92h0c0,1.61,1.31,2.92,2.92,2.92h51.82c1.61,0,2.92-1.31,2.92-2.92h0c0-1.61-1.31-2.92-2.92-2.92Z"/>
    <path class="st3" d="M696.94,303.43h-51.82c-1.61,0-2.92,1.31-2.92,2.92h0c0,1.61,1.31,2.92,2.92,2.92h51.82c1.61,0,2.92-1.31,2.92-2.92h0c0-1.61-1.31-2.92-2.92-2.92Z"/>
    <path class="st4" d="M434.25,140.11h-51.82c-1.61,0-2.92,1.31-2.92,2.92h0c0,1.61,1.31,2.92,2.92,2.92h51.82c1.61,0,2.92-1.31,2.92-2.92h0c0-1.61-1.31-2.92-2.92-2.92Z"/>
    <path class="st2" d="M105.75,102.8h-51.82c-1.61,0-2.92,1.31-2.92,2.92h0c0,1.61,1.31,2.92,2.92,2.92h51.82c1.61,0,2.92-1.31,2.92-2.92h0c0-1.61-1.31-2.92-2.92-2.92Z"/>
    <path class="st3" d="M377.51,483.07h51.81c1.61,0,2.92,1.31,2.92,2.92h0c0,1.61-1.31,2.91-2.92,2.91h-51.81c-1.61,0-2.92-1.31-2.92-2.92h0c0-1.61,1.31-2.91,2.92-2.91Z"/>
    <path class="st3" d="M844.43,547.84h-51.82c-1.61,0-2.92,1.31-2.92,2.92h0c0,1.61,1.31,2.92,2.92,2.92h51.82c1.61,0,2.92-1.31,2.92-2.92h0c0-1.61-1.31-2.92-2.92-2.92Z"/>
    <path class="st4" d="M154.86,553.67h-51.82c-1.61,0-2.92,1.31-2.92,2.92h0c0,1.61,1.31,2.92,2.92,2.92h51.82c1.61,0,2.92-1.31,2.92-2.92h0c0-1.61-1.31-2.92-2.92-2.92Z"/>
  </g>
  <rect class="st1" x="68.52" y="95.42" width="750" height="500"/>
</svg>