<?xml version="1.0" encoding="UTF-8"?>
<svg id="Capa_1" data-name="Capa 1" xmlns="http://www.w3.org/2000/svg" viewBox="0 0 512 512">
  <defs>
    <style>
      .cls-1 {
        fill: #a10a0a;
      }
    </style>
  </defs>
  <g>
    <path class="cls-1" d="M380.19,180.68c-1.43-.93-4.51-.78-4.8-1.84-.2-.74-.2-11.96,0-12.69.18-.65,6.68-1.82,7.59-6.62.77-4.1.78-31.4,0-35.51-.96-5.02-6.54-5.19-7.36-6.1l-.23-80.06c-1.81-7.41-7.92-12.32-15.51-12.5h-229.61c-8.03.26-15.64,6.14-15.62,14.55v432.18c-.02,8.4,7.57,14.28,15.62,14.55h229.61c7.07-.18,12.57-4.31,15.07-10.79l.2-124.55-4.53,4.53c-3.44,3.44-7.4,6.31-11.71,8.51l-.09,55.51c-1.06,3.26-4.34,4.41-7.56,4.3l-216.16-.53c-3.26-1.05-4.41-4.33-4.3-7.55l.61-340,3.44-3.03,220.2.25c3.26,1.06,4.4,4.34,4.29,7.56l-.27,172.93,16.27-16.27.05-33.64c9.57-.44,9.92-19.89,4.8-23.19ZM242.66,440.5c20.94-3.03,23,28.91,2.87,29.86-18.17.85-21.25-27.21-2.87-29.86ZM212.7,54c-6.9-7,4.52-16.36,10.54-10,5.71,6.02-3.27,17.38-10.54,10ZM277.91,55.55c-4.29.79-31.22.79-35.5,0-6.49-1.21-7.26-12.12.2-13.75,4.07-.9,31.1-.92,35.1,0,6.86,1.57,6.96,12.49.2,13.75Z"/>
    <path class="cls-1" d="M294.6,348.71c-1.87,7.47.27,15.18,5.72,20.63,4.15,4.15,9.61,6.37,15.28,6.37,1.77,0,3.56-.22,5.34-.66l24.35-6.09v39.51c0,.12-1.51,1.62-1.62,1.62h-198.81V86.82h200.43v180.74l-31.47,31.47c-5.93,5.93-10.14,13.37-12.18,21.51l-7.04,28.17Z"/>
  </g>
  <path class="cls-1" d="M463.18,236.63c0,8.06-3.14,15.63-8.83,21.33l-90.8,90.8c-1.44,1.43-2.99,2.74-4.63,3.9-3.68,2.63-7.83,4.54-12.24,5.65l-1.39.35-26.77,6.69c-4.03,1.01-8.19-.15-11.13-3.08-2.94-2.94-4.09-7.1-3.09-11.14l7.04-28.16c1.6-6.38,4.9-12.22,9.55-16.87l90.8-90.8c5.7-5.69,13.27-8.83,21.31-8.83h.04c8.05,0,15.61,3.14,21.31,8.83,5.69,5.7,8.83,13.28,8.83,21.33Z"/>
</svg>