<?xml version="1.0" encoding="UTF-8"?>
<svg id="Capa_1" xmlns="http://www.w3.org/2000/svg" version="1.1" viewBox="0 0 36 33.82">
  <!-- Generator: Adobe Illustrator 29.5.0, SVG Export Plug-In . SVG Version: 2.1.0 Build 137)  -->
  <defs>
    <style>
      .st0 {
        fill: #a10a0a;
      }
    </style>
  </defs>
  <path class="st0" d="M26.15,14.97V6.49L20.56.91H2.15v32h24v-.06c4.5-.5,8-4.31,8-8.94s-3.5-8.44-8-8.94ZM20.15,3.32l3.59,3.59h-3.59v-3.59ZM4.15,30.91V2.91h14v6h6v6.06c-.86.1-1.69.31-2.46.63-.58-.68-1.54-.69-1.54-.69h-2l-2-2h-4l-2,2h-2s-2,0-2,2v6c0,2,2,2,2,2h8.06c.27,2.42,1.49,4.55,3.29,6H4.15ZM17.14,19.82c-.33.65-.59,1.35-.76,2.08-.55.62-1.34,1.02-2.24,1.02-1.66,0-3-1.34-3-3s1.34-3,3-3,2.94,1.3,2.99,2.91h.01ZM25.15,30.91c-3.86,0-6.99-3.14-7-7,0-3.86,3.14-6.99,7-7,3.86,0,6.99,3.14,7,7,0,3.86-3.14,6.99-7,7Z"/>
  <path class="st0" d="M21.15,27.91h3l-3-3v3ZM22.15,23.91l5-5,3,3-5,5-3-3Z"/>
</svg>