<?xml version="1.0" encoding="UTF-8"?>
<svg id="Capa_1" xmlns="http://www.w3.org/2000/svg" version="1.1" xmlns:serif="http://www.serif.com/" viewBox="0 0 792 612">
  <!-- Generator: Adobe Illustrator 29.5.0, SVG Export Plug-In . SVG Version: 2.1.0 Build 137)  -->
  <defs>
    <style>
      .st0 {
        fill: #a10a0a;
        fill-rule: evenodd;
      }
    </style>
  </defs>
  <g id="Layer1">
    <path class="st0" d="M137.28,41.14l-.4.25-.38.27-.38.27-.36.27-.36.29-.34.29-.34.31-.34.31-.34.31-.33.33-.31.34-.31.34-.31.34-.29.34-.29.36-.27.36-.27.38-.27.38-.25.38-.23.4-.23.4-.23.4-.21.42-.21.4-.19.44-.17.42-.17.44-.15.44-.15.44-.15.44-.11.46-.13.46-.1.46-.1.48-.1.46-.06.48-.06.48-.06.48-.04.5-.02.48-.02.5v497.5c0,10.56,8.57,19.12,19.13,19.12h497.25c10.56,0,19.12-8.57,19.12-19.12V56.88l-.02-.48-.04-.5-.04-.48-.06-.48-.08-.48-.08-.48-.08-.48-.11-.46-.1-.46-.13-.46-.13-.44-.15-.46-.15-.44-.15-.44-.19-.42-.17-.44-.21-.42-.19-.4-.23-.42-.21-.4-.25-.4-.25-.38-.25-.38-.25-.38-.29-.36-.27-.36-.29-.36-.31-.34-.31-.34-.31-.34-.33-.33-.33-.33-.34-.31-.34-.31-.34-.31-.36-.29-.36-.27-.44-.33-.36-.27-.38-.25-.4-.23-.38-.23-.4-.23-.4-.21-.42-.21-.42-.19-.42-.17-.42-.17-.44-.17-.44-.15-.44-.15-.46-.13-.46-.11-.46-.11-.46-.1-.48-.1-.5-.08-.48-.06-.5-.06-.5-.04-.4-.04-.48-.02H147.38c-3.71,0-7.17,1.05-10.1,2.89h0ZM625.5,191.25v344.25H166.5V191.25h459ZM396,248.62c-40.12,0-78.62,16.45-110.22,36.68-45.59,29.18-76.5,65.69-76.5,65.69-6.04,7.13-6.04,17.61,0,24.75,0,0,30.91,36.51,76.5,65.69,31.59,20.23,70.09,36.68,110.22,36.68s78.62-16.45,110.22-36.68c45.59-29.18,76.5-65.69,76.5-65.69,6.04-7.13,6.04-17.61,0-24.75,0,0-30.91-36.51-76.5-65.69-31.59-20.23-70.09-36.68-110.22-36.68h0ZM396,286.88c32.7,0,63.84,14.15,89.6,30.64,24.73,15.84,44.62,34.08,56.34,45.86-11.72,11.78-31.61,30.03-56.34,45.86-25.76,16.49-56.9,30.64-89.6,30.64s-63.84-14.15-89.6-30.64c-24.73-15.84-44.62-34.08-56.34-45.86,11.72-11.78,31.61-30.03,56.34-45.86,25.76-16.49,56.9-30.64,89.6-30.64h0ZM396,306c-31.67,0-57.38,25.7-57.38,57.38s25.7,57.38,57.38,57.38,57.38-25.7,57.38-57.38-25.7-57.38-57.38-57.38ZM281.25,133.88h19.12c10.56,0,19.12-8.57,19.12-19.12s-8.57-19.12-19.12-19.12h-19.12c-10.56,0-19.12,8.57-19.12,19.12s8.57,19.12,19.12,19.12ZM204.75,133.88h19.12c10.56,0,19.12-8.57,19.12-19.12s-8.57-19.12-19.12-19.12h-19.12c-10.56,0-19.12,8.57-19.12,19.12s8.57,19.12,19.12,19.12Z"/>
  </g>
</svg>