<?xml version="1.0" encoding="utf-8"?>
<!-- Generator: Adobe Illustrator 27.6.1, SVG Export Plug-In . SVG Version: 6.00 Build 0)  -->
<svg version="1.1" id="Capa_1" xmlns="http://www.w3.org/2000/svg" xmlns:xlink="http://www.w3.org/1999/xlink" x="0px" y="0px"
	 viewBox="0 0 63 64" style="enable-background:new 0 0 63 64;" xml:space="preserve">
<style type="text/css">
	.st0{clip-path:url(#SVGID_00000021799328392149629450000010765697345092609441_);}
	.st1{fill:#004171;}
</style>
<g>
	<defs>
		<rect id="SVGID_1_" y="0" width="63" height="64"/>
	</defs>
	<clipPath id="SVGID_00000027591625563866715390000015091014564087966646_">
		<use xlink:href="#SVGID_1_"  style="overflow:visible;"/>
	</clipPath>
	<g style="clip-path:url(#SVGID_00000027591625563866715390000015091014564087966646_);">
		<g>
			<path class="st1" d="M20.4,21.7l3.4,11.1h-6.7L20.4,21.7L20.4,21.7z"/>
			<path class="st1" d="M51.8,0.8H11.2C5,0.8,0,5.9,0,12.1v39.7c0,6.3,5,11.3,11.2,11.3h40.7C58,63.2,63,58.1,63,51.9V12.1
				C63,5.9,58,0.8,51.8,0.8L51.8,0.8z M33.4,44.8h-5.5c-0.2,0-0.4-0.1-0.4-0.3l-2.2-6.4h-9.8l-2,6.3c-0.1,0.2-0.3,0.4-0.5,0.4H8.1
				c-0.3,0-0.4-0.2-0.3-0.5l8.4-24.6c0.1-0.3,0.2-0.5,0.2-0.8c0.1-0.6,0.2-1.2,0.2-1.7c0-0.1,0.1-0.3,0.2-0.3c0,0,0,0,0.1,0h6.7
				c0.2,0,0.3,0.1,0.3,0.2l9.6,27.3C33.7,44.7,33.6,44.8,33.4,44.8L33.4,44.8z M54,34.2c0,0.5-0.1,0.9-0.1,1.1
				c0,0.2-0.2,0.3-0.4,0.3c-0.2,0-0.5,0-0.9,0.1s-0.9,0.1-1.5,0.1c-0.6,0-1.2-0.1-1.9-0.1h-8.3c0.1,0.8,0.4,1.6,0.8,2.4
				c0.5,0.7,1.1,1.3,1.9,1.6c1.1,0.5,2.2,0.7,3.4,0.7c0.9,0,1.8-0.1,2.7-0.3c0.8-0.1,1.6-0.3,2.3-0.6c0.1-0.1,0.2,0,0.2,0.2v4.1
				c0,0.1,0,0.2-0.1,0.3c0,0.1-0.1,0.1-0.2,0.2c-0.8,0.4-1.7,0.6-2.6,0.8c-1.2,0.2-2.5,0.3-3.7,0.3c-3.2,0-6.2-0.9-8.3-3.5
				c-1.6-2-2.4-4.8-2.4-7.4c0-2.8,0.8-5.7,2.6-7.9c1.9-2.4,4.6-3.4,7.6-3.4c2.5,0,5.2,0.9,6.8,2.9c1.4,1.7,2.1,4.1,2.1,6.3
				C54,33.1,54,33.6,54,34.2L54,34.2z M44.9,27.9c-1.5-0.1-2.8,0.7-3.5,2c-0.3,0.6-0.5,1.2-0.6,1.9h5.5c0.7,0,1.2,0,1.5,0
				c0.2,0,0.4-0.1,0.6-0.2v-0.3c0-0.3-0.1-0.7-0.2-1C47.9,28.8,46.5,27.8,44.9,27.9L44.9,27.9z"/>
		</g>
	</g>
</g>
</svg>
