<?xml version="1.0" encoding="utf-8"?>
<!-- Generator: Adobe Illustrator 27.6.1, SVG Export Plug-In . SVG Version: 6.00 Build 0)  -->
<svg version="1.1" id="Capa_1" xmlns="http://www.w3.org/2000/svg" xmlns:xlink="http://www.w3.org/1999/xlink" x="0px" y="0px"
	 viewBox="0 0 64 66" style="enable-background:new 0 0 64 66;" xml:space="preserve">
<style type="text/css">
	.st0{clip-path:url(#SVGID_00000054956697958024791890000012680345970275037373_);}
	.st1{fill:#004171;}
</style>
<g>
	<defs>
		<rect id="SVGID_1_" y="0" width="64" height="66"/>
	</defs>
	<clipPath id="SVGID_00000056421212689104289540000016096965051855540611_">
		<use xlink:href="#SVGID_1_"  style="overflow:visible;"/>
	</clipPath>
	<g style="clip-path:url(#SVGID_00000056421212689104289540000016096965051855540611_);">
		<path class="st1" d="M26,22.4L26,22.4l-3.4,11.5h6.8C29.4,33.9,26,22.4,26,22.4z M26,22.4L26,22.4l-3.4,11.5h6.8
			C29.4,33.9,26,22.4,26,22.4z M52.7,0.8H11.3C5.1,0.8,0,6.1,0,12.5v41c0,6.5,5.1,11.7,11.3,11.7h41.3c6.3,0,11.3-5.2,11.3-11.7v-41
			C64,6.1,58.9,0.8,52.7,0.8L52.7,0.8z M39.2,46.3h-5.6c-0.2,0-0.4-0.1-0.4-0.3L31,39.4h-9.9l-2,6.5c0,0.2-0.3,0.4-0.5,0.4h-5
			c-0.3,0-0.4-0.2-0.3-0.5l8.6-25.5c0.1-0.3,0.2-0.6,0.3-0.9c0.1-0.6,0.2-1.2,0.2-1.8c0-0.1,0.1-0.3,0.2-0.3h6.9
			c0.2,0,0.3,0.1,0.4,0.2l9.7,28.3C39.6,46.1,39.5,46.3,39.2,46.3z M48.3,45.9c0,0.3-0.1,0.4-0.3,0.4h-5.2c-0.3,0-0.4-0.2-0.4-0.4
			V24.7c0-0.3,0.1-0.4,0.3-0.4h5.3c0.2,0,0.3,0.1,0.3,0.4C48.3,24.7,48.3,45.9,48.3,45.9z M47.7,21c-0.6,0.7-1.5,1-2.4,1
			c-0.9,0-1.7-0.3-2.4-1c-0.6-0.7-0.9-1.6-0.9-2.5c0-0.9,0.3-1.8,1-2.5s1.5-1,2.4-1c1,0,1.8,0.3,2.4,1c0.6,0.7,0.9,1.5,0.9,2.5
			C48.7,19.4,48.3,20.4,47.7,21z M26,22.4l-3.3,11.5h6.8L26,22.4C26,22.4,26,22.4,26,22.4z"/>
	</g>
</g>
</svg>
