<svg width="47" height="47" viewBox="0 0 47 47" fill="none" xmlns="http://www.w3.org/2000/svg">
<g clip-path="url(#clip0_62_675)">
<path d="M18.7589 18.7471C18.7589 16.8906 17.3214 16.45 15.7254 16.45H11.5718V21.15H16.0505C17.6348 21.15 18.7589 20.4567 18.7589 18.7471Z" fill="white"/>
<path d="M32.6375 21.1812C30.7183 21.1812 29.4376 22.3777 29.3123 24.2969H35.8374C35.6592 22.3562 34.6526 21.1812 32.6375 21.1812Z" fill="white"/>
<path d="M16.3873 24.4966H11.562V30.0465H16.2933C18.0989 30.0465 19.5677 29.4061 19.5677 27.3812C19.5657 25.3152 18.3378 24.5064 16.3873 24.4966Z" fill="white"/>
<path d="M38.6771 0.587402H8.32292C3.72083 0.587402 0 4.30824 0 8.91032V38.0895C0 42.6916 3.72083 46.4124 8.32292 46.4124H38.6771C43.2792 46.4124 47 42.6916 47 38.0895V8.91032C47 4.30824 43.2792 0.587402 38.6771 0.587402ZM28.5035 14.0686H36.6659V16.0504H28.5035V14.0686ZM16.9004 33.4874H7.13421V13.344H16.6282C20.0808 13.344 23.0692 14.3192 23.0692 18.326C23.0692 20.3509 22.1253 21.3477 20.3197 22.2074C22.795 22.9104 23.9915 25.094 23.9915 27.6222C23.9935 31.7151 20.5625 33.4659 16.9004 33.4874ZM39.8345 26.8252H29.3221C29.3221 29.1536 30.55 30.5284 32.9 30.5284C34.1161 30.5284 35.6808 29.8782 36.0686 28.6288H39.6034C38.5126 31.9756 36.2566 33.5383 32.7747 33.5383C28.1804 33.5383 25.3154 30.4226 25.3154 25.8793C25.3154 21.4946 28.3273 18.1595 32.7747 18.1595C37.3376 18.1595 39.8658 21.757 39.8658 26.0692C39.8658 26.3219 39.8442 26.5843 39.8345 26.8252Z" fill="white"/>
</g>
<defs>
<clipPath id="clip0_62_675">
<rect width="47" height="47" fill="white"/>
</clipPath>
</defs>
</svg>
