<?xml version="1.0" encoding="utf-8"?>
<!-- Generator: Adobe Illustrator 27.6.1, SVG Export Plug-In . SVG Version: 6.00 Build 0)  -->
<svg version="1.1" id="Capa_1" xmlns="http://www.w3.org/2000/svg" xmlns:xlink="http://www.w3.org/1999/xlink" x="0px" y="0px"
	 viewBox="0 0 65 67" style="enable-background:new 0 0 65 67;" xml:space="preserve">
<style type="text/css">
	.st0{fill:#004171;}
</style>
<path class="st0" d="M37.8,31.5c-3,0-4.6,2.8-4.6,6.3c0,3.8,1.8,6.1,4.5,6.1c1.9,0,3.5-1.3,3.8-3.3c0.1-0.5,0.2-1,0.2-1.6v-2.9
	c0-0.4,0-0.9-0.1-1.2C41.2,33.1,39.8,31.5,37.8,31.5L37.8,31.5z"/>
<path class="st0" d="M60,0.1H4.1C1.9,0.1,0,2,0,4.3v57.6c0,2.3,1.8,4.2,4.1,4.2H60c2.3,0,4.1-1.9,4.1-4.2V4.3
	C64.1,2,62.2,0.1,60,0.1L60,0.1z M22.2,48.9h-6.7V18.4h6.7V48.9z M42.7,48.9l-0.3-3.2h-0.1c-1.4,2.5-3.9,3.7-6.7,3.7
	c-5.1,0-9.1-4.5-9.1-11.3c0-7.4,4.5-11.7,9.6-11.7c2.6,0,4.7,1,5.6,2.5h0.1v-12h6.7v25.5c0,2.5,0.1,5.1,0.2,6.6
	C48.6,48.9,42.7,48.9,42.7,48.9z"/>
</svg>
