<svg width="53" height="53" viewBox="0 0 53 53" fill="none" xmlns="http://www.w3.org/2000/svg">
<g clip-path="url(#clip0_62_668)">
<path fill-rule="evenodd" clip-rule="evenodd" d="M26.5 0C41.1257 0 53 11.8743 53 26.5C53 41.1257 41.1257 53 26.5 53C11.8743 53 0 41.1257 0 26.5C0 11.8743 11.8743 0 26.5 0ZM26.5 9.9375C22.0019 9.9375 21.4379 9.95655 19.6713 10.0372C17.9084 10.1176 16.7044 10.3976 15.6508 10.807C14.5617 11.2303 13.6381 11.7966 12.7173 12.7174C11.7965 13.6382 11.2302 14.5619 10.8069 15.6509C10.3975 16.7044 10.1176 17.9084 10.0371 19.6713C9.95655 21.4379 9.9375 22.0019 9.9375 26.5C9.9375 30.9981 9.95655 31.5621 10.0371 33.3287C10.1176 35.0916 10.3975 36.2956 10.8069 37.3491C11.2302 38.4381 11.7965 39.3618 12.7173 40.2827C13.6381 41.2035 14.5617 41.7698 15.6508 42.1931C16.7044 42.6024 17.9084 42.8824 19.6713 42.9628C21.4379 43.0435 22.0019 43.0625 26.5 43.0625C30.9981 43.0625 31.5621 43.0435 33.3287 42.9628C35.0916 42.8824 36.2956 42.6024 37.3491 42.1931C38.4381 41.7698 39.3618 41.2035 40.2827 40.2827C41.2035 39.3618 41.7698 38.4381 42.1931 37.3491C42.6024 36.2956 42.8824 35.0916 42.9628 33.3287C43.0435 31.5621 43.0625 30.9981 43.0625 26.5C43.0625 22.0019 43.0435 21.4379 42.9628 19.6713C42.8824 17.9084 42.6024 16.7044 42.1931 15.6509C41.7698 14.5619 41.2035 13.6382 40.2827 12.7174C39.3618 11.7966 38.4381 11.2303 37.3491 10.807C36.2956 10.3976 35.0916 10.1176 33.3287 10.0372C31.5621 9.95655 30.9981 9.9375 26.5 9.9375ZM26.5 12.9218C30.9224 12.9218 31.4462 12.9386 33.1927 13.0183C34.8075 13.092 35.6844 13.3618 36.268 13.5886C37.0412 13.889 37.5929 14.248 38.1724 14.8276C38.7521 15.4071 39.111 15.9589 39.4114 16.732C39.6382 17.3156 39.9081 18.1925 39.9817 19.8073C40.0614 21.5538 40.0782 22.0776 40.0782 26.5C40.0782 30.9224 40.0614 31.4462 39.9817 33.1927C39.9081 34.8075 39.6382 35.6844 39.4114 36.268C39.111 37.0412 38.7521 37.5929 38.1724 38.1724C37.5929 38.7521 37.0412 39.111 36.268 39.4114C35.6844 39.6382 34.8075 39.9081 33.1927 39.9817C31.4465 40.0614 30.9227 40.0782 26.5 40.0782C22.0773 40.0782 21.5536 40.0614 19.8073 39.9817C18.1925 39.9081 17.3156 39.6382 16.732 39.4114C15.9588 39.111 15.4071 38.7521 14.8275 38.1724C14.2479 37.5929 13.889 37.0412 13.5886 36.268C13.3618 35.6844 13.0919 34.8075 13.0182 33.1927C12.9385 31.4462 12.9218 30.9224 12.9218 26.5C12.9218 22.0776 12.9385 21.5538 13.0182 19.8073C13.0919 18.1925 13.3618 17.3156 13.5886 16.732C13.889 15.9589 14.2479 15.4071 14.8275 14.8276C15.4071 14.248 15.9588 13.889 16.732 13.5886C17.3156 13.3618 18.1925 13.092 19.8073 13.0183C21.5538 12.9386 22.0776 12.9218 26.5 12.9218ZM26.5 17.9949C21.8028 17.9949 17.9949 21.8028 17.9949 26.5C17.9949 31.1972 21.8028 35.0051 26.5 35.0051C31.1972 35.0051 35.0051 31.1972 35.0051 26.5C35.0051 21.8028 31.1972 17.9949 26.5 17.9949ZM26.5 32.0208C23.4509 32.0208 20.9792 29.5491 20.9792 26.5C20.9792 23.4509 23.4509 20.9792 26.5 20.9792C29.5491 20.9792 32.0208 23.4509 32.0208 26.5C32.0208 29.5491 29.5491 32.0208 26.5 32.0208ZM37.3287 17.6589C37.3287 18.7566 36.4387 19.6463 35.3411 19.6463C34.2435 19.6463 33.3537 18.7566 33.3537 17.6589C33.3537 16.5613 34.2435 15.6714 35.3411 15.6714C36.4387 15.6714 37.3287 16.5613 37.3287 17.6589Z" fill="white"/>
</g>
<defs>
<clipPath id="clip0_62_668">
<rect width="53" height="53" fill="white"/>
</clipPath>
</defs>
</svg>
