<svg width="50" height="49" viewBox="0 0 50 49" fill="none" xmlns="http://www.w3.org/2000/svg">
<path d="M49.9042 11.3149L32.3667 28.5017C30.4112 30.4132 27.762 31.4867 25 31.4867C22.238 31.4867 19.5888 30.4132 17.6333 28.5017L0.0958333 11.3149C0.0666667 11.6375 0 11.9295 0 12.25V36.75C0.00330804 39.4564 1.10184 42.0511 3.05462 43.9648C5.00741 45.8786 7.65501 46.9551 10.4167 46.9584H39.5833C42.345 46.9551 44.9926 45.8786 46.9454 43.9648C48.8982 42.0511 49.9967 39.4564 50 36.75V12.25C50 11.9295 49.9333 11.6375 49.9042 11.3149Z" fill="white"/>
<path d="M29.4209 25.6148L48.4501 6.96421C47.5282 5.46627 46.2281 4.22641 44.675 3.3642C43.1219 2.50199 41.3683 2.04653 39.5834 2.04175H10.4167C8.63176 2.04653 6.87818 2.50199 5.3251 3.3642C3.77203 4.22641 2.47188 5.46627 1.55005 6.96421L20.5792 25.6148C21.7533 26.7608 23.3429 27.4043 25 27.4043C26.6572 27.4043 28.2468 26.7608 29.4209 25.6148Z" fill="white"/>
</svg>
