<?xml version="1.0" encoding="UTF-8"?>
<svg id="Capa_1" xmlns="http://www.w3.org/2000/svg" version="1.1" xmlns:xlink="http://www.w3.org/1999/xlink" viewBox="0 0 66 64">
  <!-- Generator: Adobe Illustrator 29.5.0, SVG Export Plug-In . SVG Version: 2.1.0 Build 137)  -->
  <defs>
    <style>
      .st0 {
        fill: none;
      }

      .st1 {
        fill: #004171;
      }

      .st2 {
        clip-path: url(#clippath);
      }
    </style>
    <clipPath id="clippath">
      <rect class="st0" y="0" width="66" height="64"/>
    </clipPath>
  </defs>
  <g class="st2">
    <g>
      <path class="st1" d="M28.99,23.99c.45.68.68,1.5.65,2.36,0,1.17-.27,2.08-.85,2.75-1.27,1.47-3.53,1.89-5.42,1.89h-1.46c-.33,0-.69-.03-1.07-.05v-8.96c.19-.03.58-.05,1.13-.03.52-.03,1.16-.03,1.87-.03,1.89,0,4.06.41,5.15,2.07Z"/>
      <path class="st1" d="M54.31.8H11.69C5.22.8,0,5.87,0,12.13v39.73c0,6.27,5.22,11.33,11.69,11.33h42.62c6.46,0,11.69-5.07,11.69-11.33V12.13c0-6.27-5.22-11.33-11.69-11.33ZM33.99,31.87c-1.1,1.49-2.64,2.61-4.43,3.25-1.87.67-3.93.91-6.19.91-.66,0-1.1,0-1.38-.03s-.66-.03-1.18-.03v8.56c.03.19-.11.35-.3.37h-5.33c-.22,0-.33-.11-.33-.35v-27.44c0-.19.08-.29.27-.29.47,0,.91,0,1.54-.03.66-.03,1.35-.03,2.09-.05.74-.03,1.54-.03,2.39-.05.85-.03,1.68-.03,2.5-.03,2.26,0,4.12.27,5.67.83,1.38.45,2.64,1.2,3.68,2.19.88.85,1.57,1.89,2.01,3.04.41,1.12.63,2.27.63,3.47,0,2.29-.55,4.19-1.65,5.68ZM53.49,42.24c-.77,1.07-1.84,1.89-3.08,2.37-1.35.56-3,.85-4.98.85-1.26,0-2.5-.11-3.74-.35-.96-.16-1.92-.45-2.81-.85-.19-.11-.33-.29-.3-.51v-4.64c0-.08.03-.19.11-.24.08-.05.16-.03.25.03,1.07.61,2.2,1.04,3.41,1.31,1.05.27,2.15.4,3.25.4s1.79-.13,2.28-.37c.44-.19.74-.64.74-1.12,0-.37-.22-.72-.66-1.07-.44-.35-1.35-.75-2.69-1.25-1.4-.48-2.69-1.12-3.9-1.92-.85-.59-1.57-1.36-2.09-2.27-.44-.85-.66-1.79-.63-2.72,0-1.15.33-2.24.93-3.23.69-1.07,1.71-1.92,2.89-2.45,1.29-.64,2.92-.93,4.87-.93,1.13,0,2.28.08,3.41.24.83.11,1.62.32,2.37.61.11.03.22.13.27.24.03.11.06.21.06.32v4.35c0,.11-.06.21-.14.27-.25.05-.38.05-.49,0-.83-.43-1.7-.72-2.64-.91-1.02-.21-2.03-.35-3.08-.35-.55-.03-1.13.05-1.65.19-.36.08-.66.27-.85.53-.14.21-.22.48-.22.72s.11.48.28.69c.25.29.58.53.94.72.63.32,1.29.61,1.95.88,1.49.48,2.92,1.15,4.24,1.95.91.56,1.65,1.31,2.17,2.21.44.85.66,1.79.63,2.75.03,1.25-.36,2.51-1.07,3.55Z"/>
    </g>
  </g>
</svg>