<svg width="50" height="49" viewBox="0 0 50 49" fill="none" xmlns="http://www.w3.org/2000/svg">
<g clip-path="url(#clip0_62_673)">
<path d="M25 0.0856934C19.4874 0.0916368 14.2023 2.24021 10.3041 6.06008C6.40587 9.87994 4.21292 15.0592 4.2063 20.4615C4.2063 25.7086 8.35213 33.9202 16.5292 44.8676C17.5027 46.1745 18.7773 47.2378 20.2492 47.9708C21.7212 48.7037 23.349 49.0858 25 49.0858C26.6511 49.0858 28.2789 48.7037 29.7509 47.9708C31.2228 47.2378 32.4974 46.1745 33.4709 44.8676C41.648 33.9202 45.7938 25.7086 45.7938 20.4615C45.7872 15.0592 43.5942 9.87994 39.696 6.06008C35.7978 2.24021 30.5127 0.0916368 25 0.0856934ZM25 28.5833C23.3519 28.5833 21.7407 28.1043 20.3703 27.2069C18.9999 26.3096 17.9318 25.0341 17.3011 23.5419C16.6703 22.0496 16.5053 20.4076 16.8268 18.8234C17.1484 17.2392 17.9421 15.784 19.1075 14.6419C20.2729 13.4998 21.7578 12.722 23.3743 12.4069C24.9908 12.0918 26.6664 12.2535 28.1891 12.8716C29.7118 13.4897 31.0133 14.5365 31.929 15.8795C32.8446 17.2225 33.3334 18.8014 33.3334 20.4166C33.3334 22.5825 32.4554 24.6598 30.8926 26.1913C29.3298 27.7229 27.2102 28.5833 25 28.5833Z" fill="white"/>
</g>
<defs>
<clipPath id="clip0_62_673">
<rect width="50" height="49" fill="white"/>
</clipPath>
</defs>
</svg>
